<svg width="236" height="236" viewBox="0 0 236 236" fill="none" xmlns="http://www.w3.org/2000/svg"><rect width="236" height="236" rx="52" fill="#739F46"/>
<mask id="mask0_1_70" style="mask-type:luminance" maskUnits="userSpaceOnUse" x="0" y="0" width="236" height="236">
<path d="M0 0H235.2V235.2H0V0Z" fill="white"/>
</mask>
<g mask="url(#mask0_1_70)">
<path d="M122.936 235.08C123.258 235.065 123.579 235.051 123.9 235.034C124.5 235.002 125.102 234.964 125.703 234.924C125.998 234.903 126.292 234.888 126.585 234.865C127.402 234.804 128.218 234.733 129.032 234.654C129.431 234.618 129.828 234.572 130.228 234.529C130.669 234.483 131.113 234.436 131.553 234.385C132.03 234.327 132.508 234.268 132.983 234.206C133.317 234.162 133.651 234.116 133.983 234.071C134.525 233.996 135.067 233.919 135.606 233.838C135.72 233.821 135.834 233.8 135.948 233.783C160.391 229.976 182.932 218.586 200.757 200.759C222.969 178.549 235.201 149.015 235.201 117.602C235.201 87.7066 224.114 59.5158 203.894 37.7161C203.848 37.6675 203.803 37.6189 203.76 37.5715C203.232 37.004 202.7 36.4401 202.159 35.8835C202.055 35.7741 201.946 35.666 201.842 35.5578C201.481 35.1884 201.125 34.8141 200.758 34.447C200.6 34.2891 200.438 34.1372 200.28 33.9816C200.207 33.9087 200.133 33.837 200.06 33.7653C177.929 11.9863 148.688 0 117.601 0C86.1887 0 56.6575 12.2318 34.4446 34.4446C34.0885 34.7995 33.7434 35.1628 33.3922 35.5226C33.3788 35.5372 33.3642 35.5517 33.3497 35.5651C33.3497 35.5675 33.3484 35.5675 33.3484 35.5688C11.8344 57.6479 0 86.7137 0 117.601C0 149.014 12.2318 178.547 34.4446 200.758C52.7649 219.078 76.0691 230.603 101.297 234.081C101.312 234.082 101.325 234.083 101.34 234.087C102.607 234.261 103.881 234.417 105.159 234.55C105.233 234.558 105.306 234.567 105.38 234.575C105.864 234.625 106.348 234.669 106.833 234.713C107.224 234.749 107.618 234.782 108.009 234.814C108.413 234.846 108.818 234.879 109.222 234.907C109.996 234.962 110.769 235.009 111.544 235.048C111.786 235.06 112.03 235.069 112.275 235.08C112.925 235.109 113.576 235.132 114.228 235.151C114.488 235.159 114.748 235.165 115.009 235.172C115.873 235.19 116.737 235.202 117.601 235.202C118.488 235.202 119.376 235.19 120.259 235.17C120.543 235.164 120.825 235.154 121.106 235.147C121.719 235.13 122.327 235.108 122.936 235.08ZM129.485 233.59C127.598 233.783 125.697 233.926 123.783 234.027C123.597 234.037 123.409 234.044 123.223 234.054C122.5 234.088 121.773 234.116 121.045 234.137C120.803 234.144 120.56 234.152 120.316 234.157C119.413 234.178 118.508 234.191 117.6 234.191C116.706 234.191 115.815 234.178 114.925 234.157C114.711 234.152 114.499 234.148 114.284 234.141C113.394 234.116 112.506 234.086 111.621 234.039C111.601 234.038 111.583 234.037 111.563 234.037C110.678 233.991 109.795 233.934 108.917 233.869C108.747 233.856 108.577 233.844 108.408 233.83C106.542 233.685 104.688 233.495 102.849 233.262C102.802 233.256 102.757 233.251 102.709 233.245C97.1918 232.539 91.7984 231.438 86.5472 229.986L87.9679 229.046C88.1003 228.957 88.1854 228.81 88.1927 228.65C88.2012 228.489 88.1332 228.335 88.0104 228.233L86.721 227.168C87.5012 226.765 88.2085 227.168 89.3375 228.009C89.4639 228.103 89.6267 228.133 89.7786 228.091C89.9306 228.047 90.0533 227.935 90.1104 227.788C90.87 225.858 92.3429 225.633 94.0479 225.376C94.455 225.315 94.878 225.251 95.2863 225.159L95.5901 225.094C96.8394 224.826 98.2564 224.523 98.8203 222.803C98.858 222.688 99.022 222.505 99.0804 222.481C99.321 222.447 99.575 222.435 99.8448 222.423C100.725 222.385 101.797 222.339 102.465 221.297C103.342 221.503 104.001 221.023 104.545 220.628C104.981 220.313 105.359 220.038 105.79 220.087C106.311 220.148 106.755 219.818 107.226 219.474C107.335 219.395 107.445 219.315 107.557 219.239C107.671 219.308 107.788 219.381 107.908 219.455C108.454 219.792 109.074 220.172 109.72 220.494C110.53 220.897 111.3 221.233 111.835 220.905C113.034 220.173 114.141 220.466 115.42 220.805C115.777 220.9 116.134 220.995 116.497 221.068C117.616 221.292 118.906 221.416 120.099 220.043C120.372 219.727 121.833 219.666 122.636 220.022C126.982 221.955 131.214 221.331 135.924 218.056C136.829 218.887 137.625 219.217 140.456 220.061C140.694 220.134 140.945 220.021 141.056 219.799C142.726 216.383 144.91 215.108 148.353 215.531C148.488 215.547 148.62 215.51 148.726 215.427C149.177 215.075 149.599 214.731 150.007 214.399C150.861 213.703 151.667 213.044 152.517 212.512C153.002 212.207 153.776 212.163 154.439 212.406C154.944 212.59 155.3 212.905 155.419 213.265C156.065 215.251 157.592 215.325 158.822 215.385C159.865 215.436 160.923 215.463 161.945 215.487C163.021 215.514 164.133 215.542 165.222 215.596L165.443 215.606C166.417 215.649 166.937 215.708 167.148 216.545C167.272 217.034 168.018 217.734 168.595 217.62C169.391 217.457 169.659 217.826 170.14 218.608C170.314 218.891 170.495 219.185 170.728 219.45C170.862 219.598 171.07 219.658 171.259 219.597C172.644 219.163 173.791 218.434 175.096 217.159C177.027 215.274 179.374 213.956 181.885 213.346C182.377 213.225 182.999 213.375 183.715 213.574C167.998 224.435 149.502 231.546 129.523 233.585C129.516 233.587 129.5 233.589 129.485 233.59ZM214.679 181.514C216.078 178.663 215.464 175.84 214.868 173.108L214.838 172.964C214.486 171.343 214.639 169.788 214.8 168.139C214.833 167.801 214.866 167.464 214.895 167.124C215.04 165.416 216.256 164.721 217.664 163.918C217.882 163.793 218.102 163.669 218.315 163.539C219.109 163.061 219.902 162.695 220.675 162.447C222.595 161.836 223.545 160.48 224.427 159.028C225.152 157.831 226.307 156.89 227.53 155.892C227.619 155.819 227.711 155.745 227.803 155.67C224.577 164.981 220.201 173.759 214.849 181.836C214.774 181.71 214.706 181.589 214.679 181.514ZM228.639 87.5924C228.582 87.5523 228.461 87.3651 228.375 87.0965C227.978 85.8472 227.777 85.2201 227.208 85.0184C226.692 84.8349 226.208 85.0974 225.258 85.7099V83.8177C225.258 83.6184 225.142 83.4385 224.96 83.3571C224.78 83.2757 224.568 83.3049 224.417 83.4373L220.754 86.6444C220.574 86.8024 220.528 87.0661 220.647 87.2752L221.497 88.7688C221.585 88.9267 221.754 89.0264 221.936 89.0264H224.786C224.653 89.1139 224.519 89.2026 224.388 89.2938C222.429 90.6585 222.079 92.0743 223.177 94.1767C223.304 94.4198 223.449 94.6531 223.595 94.884C223.764 95.1526 223.925 95.4054 224.046 95.6691C224.632 96.9245 225.208 98.3755 224.613 99.6965C224.338 100.31 224.095 100.953 223.86 101.573C223.063 103.681 222.308 105.673 220.304 106.852C219.045 107.591 217.766 108.217 216.496 108.709C215.742 108.999 214.89 109.33 214.59 110.091C214.586 110.097 214.585 110.104 214.584 110.108C214.422 109.759 214.188 109.448 213.964 109.183C213.839 109.035 213.639 108.97 213.449 109.02C211.716 109.472 210.638 110.227 210.249 111.265C209.848 112.333 210.165 113.605 211.221 115.157C212.009 116.315 212.672 117.775 213.309 119.747C213.646 120.789 213.267 121.75 212.242 122.456C211.528 122.947 210.842 123.455 210.18 123.944C210.045 124.042 209.914 124.141 209.782 124.237L205.992 119.131C205.885 118.987 205.706 118.909 205.53 118.928C205.35 118.949 205.196 119.063 205.123 119.228C204.744 120.089 204.387 121.025 204.172 121.988C204.169 121.966 204.168 121.946 204.167 121.924C204.039 120.355 203.614 118.803 203.201 117.306C203.022 116.659 202.838 115.989 202.682 115.33C202.649 115.195 202.564 115.077 202.442 115.009C202.322 114.94 202.18 114.923 202.045 114.962L199.908 115.597C200.264 113.495 199.287 111.976 198.415 110.616C197.861 109.754 197.337 108.94 197.169 108.042C197.141 107.891 197.048 107.764 196.914 107.691C196.781 107.618 196.622 107.609 196.481 107.668L195.597 108.027C194.884 108.318 194.217 108.59 193.554 108.872L193.345 108.956C193.014 109.089 192.639 109.238 192.352 109.524C191.715 110.161 191.09 110.832 190.486 111.48C189.287 112.767 188.045 114.096 186.68 115.196C185.001 116.551 184.909 118.13 184.957 119.507C185.022 121.415 184.802 123.38 182.898 124.933C180.392 119.406 178.996 114.248 178.631 109.178C178.622 109.041 178.556 108.913 178.45 108.824C178.343 108.737 178.203 108.694 178.067 108.711C177.834 108.738 177.595 108.793 177.364 108.845C176.948 108.938 176.475 109.043 176.224 108.933C175.975 108.824 175.685 108.611 175.616 108.336C175.568 108.141 175.642 107.918 175.837 107.671C176.145 107.275 175.751 106.75 175.49 106.473C175.215 106.184 174.928 105.902 174.644 105.621C174.096 105.083 173.578 104.572 173.138 104C172.227 102.811 171.124 102.741 170.062 102.843C169.443 102.902 168.811 102.855 168.14 102.802C167.573 102.759 166.988 102.714 166.401 102.74C165.053 102.795 164.31 102.29 163.992 101.103C163.924 100.851 163.674 100.693 163.417 100.736C160.194 101.293 160.003 101.2 158.325 98.2224C158.255 98.0972 158.188 97.966 158.121 97.8359C157.67 96.9585 156.986 95.6363 155.034 96.487C154.858 96.5648 154.741 96.7337 154.73 96.9257C154.615 99.2396 155.989 100.898 157.203 102.36L157.437 102.642C159.534 105.19 160.08 105.07 162.531 103.441C162.667 103.573 162.801 103.705 162.936 103.837C163.446 104.338 163.974 104.855 164.515 105.346C165.504 106.244 165.656 106.983 165.119 108.272C164.07 110.788 162.571 112.369 160.262 113.396C159.495 113.738 158.822 114.251 158.172 114.748C157.516 115.246 156.896 115.72 156.211 116.008C155.065 116.488 153.784 116.764 152.544 117.029L152.093 117.125C151.933 116.975 151.753 116.84 151.578 116.707C151.559 116.624 151.535 116.511 151.506 116.374C151.21 115.011 150.426 111.394 149.147 109.63C148.915 109.309 148.653 109.015 148.4 108.732C147.744 107.997 147.175 107.36 147.146 106.384C147.072 104.024 145.87 102.196 144.707 100.427C144.375 99.9226 144.031 99.4012 143.726 98.8811C143.477 98.4582 142.98 98.2917 142.54 98.1434C142.383 98.0924 142.226 98.0401 142.09 97.9769C141.917 97.8955 141.711 97.9186 141.562 98.0377C141.411 98.1568 141.34 98.3512 141.379 98.5384C141.932 101.176 142.523 103.327 143.601 105.25C144.089 106.12 144.356 107.079 144.639 108.093C145.049 109.567 145.474 111.089 146.623 112.332C146.621 112.355 146.62 112.382 146.618 112.407C146.609 112.57 146.598 112.773 146.676 112.977L146.735 113.131C146.898 113.557 147.081 114.042 147.406 114.429C147.828 114.934 148.466 115.63 149.081 116.303C149.666 116.944 150.383 117.728 150.584 117.999C150.784 119.406 151.122 120.159 151.743 120.59C152.376 121.027 153.214 121.072 154.642 120.75C154.971 120.676 155.294 120.588 155.62 120.502C155.936 120.418 156.253 120.333 156.574 120.261C156.945 120.176 157.323 120.111 157.788 120.027C157.845 120.017 157.902 120.006 157.962 119.995C157.962 120.018 157.962 120.044 157.962 120.067C157.962 120.485 157.961 120.847 157.857 121.13C157.658 121.668 157.467 122.211 157.276 122.752C156.623 124.602 155.946 126.515 155.006 128.223C154.416 129.293 153.519 130.196 152.568 131.152C152.165 131.557 151.748 131.977 151.36 132.407C151.329 132.441 151.257 132.488 151.188 132.535C151.046 132.627 150.868 132.742 150.738 132.933C150.281 133.6 149.768 134.264 149.27 134.904C147.886 136.686 146.457 138.527 145.939 140.847C145.556 142.561 145.703 144.61 146.322 146.198C147.219 148.506 146.831 150.708 146.42 153.04L146.343 153.484C146.22 154.187 145.093 155.077 144.099 155.603C141.503 156.979 140.71 158.379 140.956 161.148C140.999 161.63 140.998 162.111 140.995 162.621C140.994 162.958 140.993 163.297 141.005 163.631C141.038 164.584 140.77 165.003 140.015 165.178C138.493 165.534 138.192 166.708 138.031 167.78C137.628 170.456 135.723 172.351 133.882 174.182C133.678 174.384 133.475 174.586 133.275 174.787C132.644 175.424 131.517 175.773 130.675 175.886C129.284 176.072 127.817 176.029 126.396 175.987L125.882 175.973C125.475 175.963 125.095 175.762 124.836 175.42C124.549 175.043 124.459 174.562 124.582 174.068C125.26 171.358 124.303 169.202 123.082 166.863C122.718 166.166 122.51 165.206 122.51 164.231C122.511 160.311 121.723 156.943 120.1 153.936C119.026 151.946 120.078 149.826 120.802 148.739C122.29 146.504 121.952 144.229 121.653 142.222L121.575 141.684C121.144 138.657 120.062 136.218 118.361 134.433C117.498 133.53 117.279 132.738 117.629 131.787C117.78 131.38 117.826 130.962 117.872 130.559C117.894 130.365 117.915 130.173 117.95 129.985C118.254 128.313 118.311 127.402 117.811 126.747C117.319 126.105 116.432 125.915 114.861 125.776C114.214 125.719 114 125.543 113.706 124.837C113.072 123.306 112.083 122.877 111.08 122.877C110.601 122.877 110.118 122.976 109.67 123.098C109.312 123.195 108.955 123.3 108.597 123.407C106.515 124.015 104.549 124.593 102.454 123.827C101.98 123.653 101.231 123.64 100.781 123.953C99.6248 124.752 98.9929 124.335 97.7812 123.39C97.6646 123.298 97.5455 123.206 97.4252 123.115C95.5451 121.687 93.4694 119.864 92.3259 117.169C92.1035 116.644 91.728 116.136 91.2965 115.778C89.4128 114.222 88.9948 112.544 89.8965 110.173C90.3535 108.973 90.3498 107.365 89.888 105.258C89.7082 104.435 89.7714 104.033 90.1785 103.387C90.4422 102.968 90.6974 102.54 90.9526 102.115C92.2177 99.9955 93.4148 97.9951 95.7566 96.9573C96.9208 96.4408 97.5017 95.3859 97.3924 93.9859C97.2611 92.2931 97.8104 91.3694 99.2894 90.7971C100.016 90.5163 100.478 89.809 100.968 89.0592C101.098 88.8599 101.23 88.6582 101.368 88.4637C102.921 89.2172 104.666 89.1151 106.687 88.155C109.147 86.9872 111.727 87.0406 114.461 87.1002C115.378 87.1208 116.329 87.1391 117.263 87.1087C117.39 87.2071 117.656 87.5656 117.822 87.946C117.934 88.2061 117.932 88.5889 117.928 88.9583L117.927 89.1977C117.938 91.6964 118.313 92.2201 120.599 92.9214C121.045 93.0575 121.472 93.309 121.924 93.5752C122.23 93.755 122.547 93.9422 122.88 94.099C123.749 94.5061 124.63 94.8889 125.564 95.2948C125.972 95.471 126.393 95.6545 126.825 95.8453C126.96 95.9049 127.113 95.9024 127.247 95.8392C127.379 95.7773 127.479 95.6594 127.518 95.5184L127.926 94.0528C128.095 93.4427 128.291 93.0854 128.522 92.9651C128.736 92.8533 129.088 92.8898 129.603 93.0721C129.806 93.1438 130.012 93.2738 130.23 93.4111C130.358 93.4913 130.484 93.5703 130.614 93.6432C132.955 94.9484 135.569 95.3276 138.39 94.7747C138.545 94.7431 138.703 94.7151 138.86 94.6872C139.031 94.6556 139.2 94.6264 139.369 94.5911C139.654 94.5352 140.015 94.5024 140.363 94.4708C141.348 94.3821 142.28 94.2995 142.608 93.659C143.111 92.6783 143.186 91.5226 143.257 90.4069C143.279 90.0703 143.299 89.7349 143.334 89.408C143.371 89.0349 143.184 88.7007 143.073 88.5014C143.053 88.4649 143.036 88.4358 143.025 88.4139C142.948 88.2194 142.762 88.0931 142.553 88.0931C141.976 88.0931 141.405 88.1149 140.842 88.1368C139.564 88.1866 138.353 88.234 137.213 88.0104C136.473 87.8646 135.714 87.0467 135.043 86.3248L134.83 86.0964C134.586 85.8363 134.472 85.3356 134.362 84.8495C134.334 84.7255 134.308 84.6052 134.27 84.4569C133.869 82.854 133.667 82.0507 133.006 81.787C132.326 81.5123 131.577 81.9851 129.931 83.0266C129.817 83.0983 129.738 83.2125 129.708 83.345C129.679 83.4762 129.703 83.6135 129.775 83.7266L131.091 85.7816L129.867 86.6177C129.605 86.2726 129.332 85.9469 129.065 85.6273C128.361 84.7863 127.698 83.9939 127.547 83.1943C127.014 80.342 125.031 79.1438 123.115 77.988L122.761 77.7741C122.392 77.5505 122.045 77.2576 121.678 76.949C121.11 76.4714 120.464 75.9293 119.597 75.5295C119.433 75.4517 119.238 75.47 119.09 75.5757C118.943 75.6802 118.861 75.8576 118.88 76.0387C118.895 76.1906 118.893 76.3717 118.889 76.5637C118.882 77.0729 118.872 77.649 119.232 78.0208C120.185 79.0076 121.236 79.9094 122.256 80.7832C122.522 81.0116 122.789 81.2401 123.054 81.4698C123.46 81.8222 123.884 82.1516 124.175 82.3764L123.526 84.5141C123.086 82.7714 121.714 81.8028 120.313 80.9594C119.66 80.5681 119.137 79.913 118.583 79.2179C118.355 78.9323 118.127 78.6455 117.889 78.3781C117.605 78.0573 117.34 77.7134 117.062 77.3476C116.929 77.1774 116.798 77.0036 116.661 76.8299C116.52 76.6512 116.275 76.5868 116.065 76.6767C115.597 76.8748 115.174 77.141 114.765 77.3998C113.654 78.0998 112.92 78.5009 111.875 77.9115C111.442 77.6696 110.784 78.0208 110.59 78.1339C110.459 78.2129 110.111 78.4194 110.115 78.7865C110.122 79.6651 109.657 80.0248 108.835 80.5875C108.59 80.7552 108.337 80.929 108.098 81.1307C107.547 81.5986 107.102 82.3168 106.699 83.3972C106.246 84.6076 105.214 85.6601 104.007 86.1438C103.205 86.4646 101.936 86.6943 100.44 85.9663C99.9445 85.7257 99.4024 85.6078 98.8786 85.4936C98.7207 85.4595 98.5602 85.4231 98.3986 85.3854C97.9879 84.3998 97.7144 83.2988 98.1993 81.9559C98.4655 81.2146 98.3634 80.387 98.2552 79.5108C98.2175 79.1997 98.1774 78.8825 98.1519 78.5531C99.2748 78.0075 100.538 78.1764 101.871 78.3538C103.093 78.5142 104.36 78.6832 105.645 78.338C105.792 78.2967 105.913 78.1934 105.975 78.0536C107.229 75.2342 105.458 73.7892 104.036 72.6262C103.636 72.2993 103.254 71.987 102.935 71.6552C103.003 71.4948 103.165 71.4729 103.703 71.4839C104.344 71.4972 105.414 71.5179 105.745 70.2418C105.866 70.0498 106.733 69.8019 107.197 69.6707C107.59 69.5589 107.993 69.4434 108.332 69.3061C108.562 69.2137 108.69 68.9707 108.636 68.73L108.465 67.9389C108.519 67.9389 108.575 67.9401 108.629 67.9425C109.932 67.9644 111.285 67.9924 111.954 66.0905C111.959 66.0759 112.094 65.7538 113.652 65.3698C114.653 65.1219 115.389 64.9031 115.735 64.3271C116.085 63.745 115.927 62.9599 115.684 61.9938C115.402 60.8806 115.261 60.3227 115.414 59.9533C115.535 59.6604 115.891 59.3469 116.504 58.8814L116.72 61.2622C116.736 61.4372 116.842 61.5915 116.998 61.6681C117.156 61.7483 117.342 61.7385 117.492 61.645L119.393 60.4589C119.604 60.3264 119.688 60.0602 119.591 59.8306L118.002 56.0924C117.948 55.9635 117.842 55.8639 117.711 55.8153C117.579 55.7679 117.434 55.7752 117.308 55.8384C117.118 55.9356 116.918 56.0328 116.716 56.1325C116.249 56.3634 115.764 56.6028 115.286 56.8653C114.755 57.1582 114.015 57.4535 113.494 57.1983C112.981 56.9479 112.766 56.203 112.674 55.6221C112.625 55.3049 112.587 54.9816 112.551 54.6608C112.475 54.0069 112.397 53.33 112.213 52.6726C112.022 51.992 112.111 51.6846 112.631 51.2434L112.745 51.1462C114.836 49.3694 116.998 47.5307 118.985 45.5693C120.715 43.8618 123.074 41.1651 123.576 37.4986C123.628 37.1194 124.342 36.3964 124.7 36.3587C125.825 36.242 126.841 35.7997 127.822 35.3743C129.095 34.8201 130.298 34.2976 131.672 34.4872C132.082 34.5443 132.437 34.2976 132.776 34.0594C132.841 34.0156 132.906 33.9682 132.973 33.9233C133.649 34.3182 134.275 34.8165 134.932 35.3415C136.12 36.287 137.345 37.2653 138.99 37.7101C140.085 38.0042 141.091 38.647 142.16 39.3276C142.584 39.5986 143.022 39.8769 143.464 40.1309C144.545 40.7519 144.627 41.1542 144.399 41.6792C144.083 42.4083 143.437 43.2056 142.157 42.8519C141.687 42.7219 141.218 42.5748 140.747 42.4278C139.878 42.1556 138.982 41.8736 138.002 41.6743C137.766 41.6269 137.534 41.7484 137.439 41.966C137.343 42.1835 137.413 42.4387 137.605 42.5797C139.018 43.6066 139.621 45.0905 140.259 46.6606C140.575 47.4432 141.731 47.6595 142.709 47.6061C142.87 47.5976 143.015 47.5125 143.104 47.3776C143.191 47.2427 143.21 47.0738 143.154 46.9243L142.642 45.5583L144.023 46.0931C144.153 46.1429 144.3 46.138 144.425 46.0773C144.55 46.0153 144.646 45.9047 144.687 45.771C144.766 45.5194 144.821 45.2497 144.872 44.9908C144.969 44.5071 145.071 44.0052 145.296 43.8035C145.598 43.5361 146.142 43.4194 146.717 43.2979C147.019 43.2335 147.331 43.1679 147.645 43.0743C147.846 43.0148 147.988 42.8373 148.005 42.6295L148.261 39.3701C148.69 39.4431 149.179 39.55 149.259 39.6813C149.356 39.838 149.091 40.5988 148.993 40.8856C148.84 41.328 148.91 41.8007 148.972 42.2212C148.997 42.3816 149.021 42.542 149.031 42.6988C149.042 42.8847 149.155 43.05 149.324 43.129L150.128 43.4997C150.371 43.6127 150.657 43.5155 150.784 43.2821C150.862 43.1387 150.934 42.9832 151.003 42.8313C151.133 42.5481 151.256 42.2819 151.422 42.113C151.562 41.972 151.699 41.8299 151.839 41.6852C152.517 40.984 153.219 40.2609 154.012 39.8004C154.129 39.7335 154.243 39.663 154.36 39.5901C155.299 39.0092 155.878 38.7188 156.787 39.4868C157.352 39.9668 158.252 39.7359 159.205 39.4941C159.555 39.4042 159.916 39.3118 160.215 39.2729C160.351 39.2535 160.496 39.2207 160.639 39.1878C160.793 39.1526 161.053 39.0943 161.125 39.1161C161.69 39.3823 162.404 39.6448 162.914 39.3021C163.409 38.9679 163.37 38.3226 163.338 37.8024C163.331 37.676 163.324 37.5375 163.324 37.4196C165.215 36.716 166.578 37.721 168.288 38.9813C168.647 39.2462 169.014 39.5172 169.394 39.7773C169.56 39.8915 169.779 39.8939 169.951 39.7858C170.121 39.6788 170.212 39.4795 170.179 39.279C170.129 38.9606 170.102 38.6762 170.077 38.4198C170.026 37.8826 169.981 37.4172 169.762 36.9991C168.572 34.7266 168.887 32.0177 170.527 30.4111C170.776 30.1668 171.572 30.0575 172.077 30.1984C172.298 30.2592 172.736 30.8425 172.747 31.1561C172.761 31.5839 172.751 32.025 172.742 32.4528C172.71 33.741 172.679 35.0717 173.303 36.4073C173.674 37.1984 173.828 38.1476 173.955 39.0493C173.996 39.3398 174.022 39.6326 174.051 39.9304C174.123 40.7009 174.198 41.4993 174.491 42.4108C174.558 42.6186 174.748 42.7596 174.968 42.7608C175.173 42.7438 175.382 42.6247 175.452 42.4193L175.655 41.8226C175.807 41.3717 175.959 40.9208 176.125 40.4773C176.356 39.8526 176.599 39.2304 176.833 38.6313L177.135 37.8523C177.188 37.7161 177.179 37.563 177.111 37.4342C177.043 37.3054 176.921 37.213 176.779 37.1778C176.706 37.1608 176.562 37.134 176.388 37.1012C176.191 37.0635 175.807 36.9931 175.552 36.9323C175.512 36.4365 175.338 35.9649 175.17 35.5043C174.847 34.6245 174.655 33.995 175.046 33.3436C175.094 33.4068 175.14 33.4688 175.187 33.5344C175.704 34.2392 176.485 35.3038 178.086 34.5382C178.227 34.4714 178.327 34.3425 178.36 34.1906C178.393 34.0387 178.355 33.8795 178.257 33.7592L177.55 32.9012C178.007 32.7177 178.314 32.4503 178.479 32.0943C178.588 31.8634 178.629 31.6094 178.6 31.3299L182.312 33.075V35.6247C182.312 35.8337 182.44 36.0208 182.633 36.0962C182.828 36.1715 183.048 36.1217 183.189 35.9674C183.901 35.1957 184.266 34.3061 184.218 33.4639C184.18 32.8125 183.903 32.2462 183.415 31.8257C183.111 31.5632 182.74 31.4101 182.407 31.2727C181.922 31.0722 181.583 30.7587 181.423 30.371C181.285 30.0332 181.293 29.6589 181.449 29.2906C181.597 28.9443 182.389 28.5201 183.254 28.3245C183.895 28.1811 184.595 28.2285 185.105 28.2637C185.295 28.2759 185.454 28.2868 185.577 28.2868C185.772 28.2868 185.951 28.1738 186.034 27.9976C186.249 27.5431 186.42 27.1068 186.572 26.7215C186.87 25.9656 187.107 25.3689 187.495 24.9837C187.64 24.8415 187.787 24.7467 187.938 24.6872C209.425 40.9938 225.108 64.5665 231.287 91.7158L230.228 92.3295C230.227 91.9783 230.227 91.6842 230.232 91.3901C230.236 91.175 230.254 90.955 230.271 90.7339C230.361 89.6596 230.481 88.1927 228.639 87.5924ZM214.695 112.729C214.589 112.851 214.296 112.937 214.029 113.012C214.025 113.003 214.024 112.994 214.02 112.984C213.982 112.845 213.924 112.637 213.896 112.496C214.274 112.198 214.526 111.882 214.662 111.542C214.704 111.655 214.754 111.772 214.813 111.892C214.9 112.073 214.83 112.574 214.695 112.729ZM205.392 133.563L207.996 138.464C208.023 138.515 208.047 138.576 208.073 138.638C208.186 138.907 208.339 139.276 208.726 139.321H208.729C208.941 139.346 209.164 139.316 209.378 139.284C209.474 139.271 209.614 139.251 209.71 139.249C209.708 139.271 209.706 139.298 209.702 139.33C209.559 140.385 209.115 141.546 208.489 142.51C208.46 142.552 208.348 142.551 208.316 142.552C207.855 142.536 207.088 142.062 206.722 141.407C206.338 140.716 206.036 139.944 205.739 139.189C204.481 135.979 203.04 132.611 200.52 129.833C200.475 129.783 200.436 129.546 200.409 129.376C201.336 129.354 201.876 129.622 202.369 130.266C203.038 131.136 203.813 131.932 204.56 132.7C204.838 132.985 205.117 133.271 205.392 133.563ZM206.325 132.948C206.25 132.526 206.193 132.086 206.138 131.657C205.975 130.401 205.806 129.099 205.173 128.03C204.8 127.4 204.582 126.768 204.451 126.128C204.799 126.907 205.353 127.661 206.179 128.367C207.233 129.269 207.325 130.347 207.431 131.593C207.486 132.243 207.542 132.911 207.751 133.561L206.325 132.948ZM147.436 111.718C146.406 110.644 146.023 109.275 145.619 107.826C145.333 106.797 145.037 105.734 144.489 104.758C143.595 103.165 143.052 101.374 142.569 99.2323C142.705 99.287 142.827 99.3465 142.857 99.3976C143.176 99.9396 143.526 100.472 143.865 100.986C145.001 102.714 146.073 104.345 146.137 106.418C146.18 107.764 146.96 108.639 147.648 109.41C147.896 109.687 148.13 109.95 148.332 110.231C149.41 111.718 150.135 114.843 150.459 116.312C150.279 116.113 150.072 115.885 149.833 115.625C149.223 114.96 148.596 114.273 148.185 113.784C147.971 113.529 147.826 113.147 147.685 112.778L147.631 112.636C147.626 112.606 147.631 112.523 147.634 112.468C147.645 112.263 147.664 111.953 147.436 111.718ZM125.084 81.8101C125.022 81.7615 124.938 81.6958 124.836 81.6181C124.553 81.3981 124.125 81.0675 123.723 80.72C123.456 80.4891 123.188 80.2582 122.919 80.0285C121.919 79.1705 120.885 78.2846 119.967 77.3342C119.92 77.2734 119.905 77.0668 119.904 76.8675C120.316 77.1385 120.677 77.4399 121.03 77.7365C121.428 78.0719 121.804 78.3866 122.239 78.6504L122.596 78.8667C124.478 80.003 126.106 80.9849 126.555 83.3924C126.753 84.4533 127.498 85.3453 128.29 86.2908C128.643 86.7137 129.01 87.1524 129.336 87.6155C129.494 87.8427 129.806 87.8986 130.035 87.7418L132.068 86.354C132.293 86.1984 132.356 85.8934 132.209 85.6625L130.902 83.6233C131.707 83.1177 132.448 82.679 132.629 82.7385C132.813 82.8236 133.064 83.8299 133.295 84.7462C133.323 84.8556 133.348 84.9698 133.374 85.0852C133.508 85.6734 133.66 86.3406 134.091 86.8012L134.302 87.0248C135.077 87.8597 135.954 88.8052 137.018 89.013C138.273 89.2609 139.539 89.2123 140.882 89.1589C141.333 89.1418 141.788 89.1248 142.248 89.1188C142.287 89.1929 142.327 89.278 142.325 89.3193C142.291 89.6583 142.268 90.0071 142.246 90.3571C142.177 91.4181 142.112 92.4182 141.714 93.1984C141.569 93.3601 140.723 93.4366 140.27 93.4767C139.894 93.5096 139.507 93.546 139.169 93.6129C139.006 93.6457 138.842 93.6736 138.678 93.704C138.515 93.7332 138.352 93.7635 138.189 93.7951C135.576 94.3104 133.259 93.9738 131.103 92.7719C130.989 92.7099 130.879 92.6382 130.768 92.5689C130.512 92.4073 130.249 92.2396 129.939 92.1302C129.432 91.9503 128.687 91.7498 128.051 92.0804C127.542 92.3453 127.203 92.874 126.948 93.7964L126.698 94.6981C126.45 94.5899 126.205 94.4842 125.966 94.3785C125.041 93.9762 124.166 93.5958 123.308 93.1948C123.016 93.0587 122.735 92.8934 122.436 92.716C121.953 92.4328 121.454 92.1387 120.893 91.9661C119.112 91.4193 118.947 91.3087 118.937 89.2075L118.938 88.9826C118.943 88.5281 118.948 88.0141 118.748 87.5571C118.643 87.3129 118.082 86.1073 117.32 86.1073C117.313 86.1073 117.303 86.1073 117.296 86.1073C116.368 86.1425 115.409 86.1219 114.482 86.1012C111.751 86.0453 108.928 85.9846 106.252 87.2533C104.356 88.1538 102.84 88.1964 101.482 87.3894C101.471 87.3833 101.46 87.3773 101.449 87.3724C102.437 87.5632 103.431 87.4684 104.383 87.0892C105.869 86.495 107.088 85.2493 107.646 83.7582C107.981 82.8601 108.342 82.2549 108.75 81.9085C108.95 81.7396 109.171 81.5889 109.405 81.4297C110.138 80.929 111.04 80.3116 111.12 79.0016C111.226 78.9408 111.379 78.8764 111.475 78.8533C113.051 79.6809 114.246 78.9274 115.303 78.2615C115.579 78.0877 115.843 77.9212 116.111 77.779C116.16 77.841 116.207 77.9054 116.255 77.9686C116.546 78.349 116.82 78.7075 117.13 79.055C117.356 79.3102 117.572 79.5813 117.79 79.8535C118.374 80.5875 118.981 81.3471 119.79 81.8307C121.398 82.7969 122.722 83.7691 122.656 85.9092C122.651 86.0684 122.721 86.2203 122.844 86.3212C122.968 86.4208 123.132 86.4549 123.288 86.4148L123.786 86.2847C123.956 86.241 124.091 86.1122 124.142 85.9445L125.251 82.3582C125.313 82.1564 125.247 81.9401 125.084 81.8101ZM104.291 63.0839C102.145 61.5733 101.114 60.3835 101.812 58.4306C101.85 58.3248 101.885 58.213 101.922 58.1012C102.16 57.3648 102.317 56.9686 102.878 56.9455L102.805 57.7767C102.783 58.0234 102.944 58.2495 103.183 58.3102C103.5 58.3905 103.816 58.4707 104.197 58.5655C103.6 60.1939 104.407 61.5259 105.309 62.6293C105.955 63.4205 106.647 64.1594 107.38 64.942C107.637 65.2191 107.902 65.501 108.172 65.7927L107.553 67.2316C107.508 67.3361 107.501 67.4503 107.528 67.5573L102.594 67.9498C102.591 67.934 102.59 67.9182 102.59 67.9049C102.464 66.2071 102.362 64.8667 104.223 63.9528C104.384 63.8726 104.491 63.717 104.505 63.5384C104.519 63.3597 104.437 63.1872 104.291 63.0839ZM141.298 44.8571L141.942 46.5719C141.503 46.5111 141.236 46.3738 141.198 46.2814C140.76 45.2023 140.312 44.0964 139.582 43.1253C139.875 43.2128 140.163 43.304 140.446 43.3939C140.93 43.5458 141.407 43.6953 141.891 43.829C142.807 44.0818 143.645 43.9372 144.306 43.4425C144.074 43.8351 143.976 44.3175 143.882 44.7878C143.871 44.8401 143.861 44.8911 143.85 44.9422L141.954 44.2094C141.768 44.1389 141.558 44.1814 141.416 44.3224C141.274 44.4597 141.227 44.6712 141.298 44.8571ZM174.765 37.704C174.983 37.8486 175.372 37.9325 175.975 38.0455L175.893 38.2545C175.659 38.8573 175.414 39.4856 175.181 40.1163C175.157 40.1795 175.134 40.2415 175.112 40.3059C175.095 40.1443 175.08 39.9863 175.064 39.8283C175.035 39.516 175.007 39.2073 174.964 38.9023C174.906 38.5073 174.846 38.105 174.765 37.704ZM62.5771 14.9005C63.1847 15.4571 63.8872 15.5446 64.5082 15.6212C65.3649 15.7281 65.93 15.7962 66.3116 16.8924C66.3894 17.1111 66.6142 17.2509 66.8366 17.2302C67.0688 17.2083 67.2559 17.0333 67.2911 16.8036L67.5913 14.8507L70.6076 17.3299C70.8227 17.5061 71.1399 17.4745 71.3186 17.2618L71.6576 16.8547C71.8047 16.676 71.812 16.4208 71.6759 16.2337L70.649 14.8288C71.0366 14.6599 71.4036 14.4606 71.7622 14.2686C72.913 13.6476 73.8208 13.1566 75.0215 13.6938C75.2111 13.7788 75.4347 13.7399 75.5818 13.5917C76.9234 12.2719 78.5774 12.2354 80.5984 12.3253C81.0748 12.3472 81.55 12.3606 82.0276 12.374C83.5054 12.4165 85.0342 12.4602 86.4694 12.741C87.6957 12.9804 88.8927 13.4385 90.1627 13.9259C90.5698 14.0802 90.983 14.2406 91.4035 14.3938L89.837 17.3116C89.7349 17.5012 89.7628 17.7333 89.9075 17.8913C90.0509 18.0493 90.2806 18.1016 90.4774 18.0165C90.8542 17.8585 91.226 17.6957 91.5955 17.534C93.5946 16.6578 95.4977 15.8229 97.5856 16.1267C97.3559 16.388 97.1493 16.6651 96.9451 16.9373C96.1601 17.98 95.6254 18.6144 94.5826 18.4819C94.4052 18.4601 94.2302 18.5318 94.1208 18.6715C94.0102 18.8125 93.9823 18.9984 94.0455 19.1637C94.099 19.3023 94.1865 19.4821 94.28 19.6705C94.3517 19.8151 94.4745 20.0582 94.5304 20.2101C93.7514 21.1106 93.3771 22.0196 93.4172 22.9128C93.4537 23.7016 93.7951 24.4623 94.4599 25.2231L93.2568 25.6071C93.0951 25.6582 92.97 25.787 92.9226 25.9498C92.8752 26.1127 92.9153 26.2877 93.0247 26.4165L94.6325 28.3014L93.7587 28.5189C93.5776 28.5639 93.4342 28.7061 93.3892 28.8884C93.3443 29.0694 93.4038 29.2627 93.5424 29.3854C93.6918 29.5203 93.8583 29.6564 94.0127 29.7816C94.0747 29.8326 94.1476 29.8922 94.2132 29.9469C93.8851 30.574 93.5108 31.201 93.1194 31.8597L92.705 32.5573C92.6358 32.674 92.6175 32.8101 92.6504 32.9401C92.7366 33.2755 92.8399 33.634 92.9505 34.0095C93.2313 34.9672 93.5472 36.0524 93.6493 37.1328C93.6918 37.5885 93.2191 38.438 92.7111 38.8172L92.2967 39.1307C91.1203 40.0191 89.9062 40.9403 88.663 41.1469C85.9056 41.605 84.2431 43.2542 83.1031 44.6384C82.5198 45.3457 82.0641 45.5753 81.2231 45.5863C79.7769 45.6057 78.9481 46.3556 78.62 47.9464C78.2748 49.6101 77.7413 51.2604 77.2224 52.8549C77.0559 53.3714 76.8894 53.883 76.7314 54.3922C76.4665 54.3302 76.1955 54.278 75.933 54.2245C75.007 54.041 74.0493 53.8514 73.3991 53.3604C72.1571 52.421 70.5092 50.9274 69.7205 49.147C69.2429 48.0715 68.7082 47.0385 68.1285 46.0773C66.9339 44.0951 67.0372 43.2602 68.6826 41.6087C69.3243 40.9634 69.6293 40.3339 69.6135 39.6849C69.599 39.0396 69.255 38.4052 68.5951 37.8024C68.5004 37.7161 68.3788 37.67 68.2536 37.67C68.2378 37.67 68.2221 37.67 68.2063 37.6724C68.0641 37.687 67.934 37.7587 67.8477 37.8729C67.7116 38.0552 67.584 38.2569 67.4552 38.4587C67.1745 38.9023 66.884 39.3592 66.5766 39.426C66.4089 39.4637 66.1901 39.3932 65.9227 39.2194C65.2179 38.7625 65.3273 38.4003 65.7514 37.4196C65.8219 37.2543 65.896 37.0866 65.9616 36.9116L68.075 37.399C68.2281 37.433 68.391 37.3953 68.5137 37.2932C68.6352 37.1924 68.7009 37.0392 68.6948 36.88C68.6668 36.2979 68.5648 35.5651 68.0191 35.0766C67.3762 34.5042 66.3031 34.4191 64.7877 34.5005C65.4172 30.992 63.1908 29.0075 61.0349 27.0849L60.7931 26.8698C58.2786 24.6215 55.0083 24.929 52.7686 25.3531C51.0976 25.6691 50.3089 25.1125 49.1592 24.2497L50.5495 23.7733C50.7451 23.7064 50.88 23.5278 50.891 23.3212C50.9019 23.1146 50.784 22.9214 50.5969 22.8351L50.0804 22.5981C50.9396 21.9856 51.8085 21.3852 52.6847 20.7958C53.6825 20.8554 54.6389 20.7035 55.0229 19.2634C57.445 17.7163 59.929 16.2568 62.4689 14.8884C62.537 14.9005 62.5783 14.9078 62.5771 14.9005ZM41.6913 30.0222C41.7497 30.1887 41.8189 30.5071 41.87 30.7514C41.9332 31.0443 42.0036 31.376 42.0936 31.6847C42.1398 31.8378 42.2552 31.9618 42.4059 32.0165C42.4849 32.0457 42.5821 32.0955 42.6939 32.1526C43.0925 32.3556 43.6418 32.6363 44.2203 32.5804C45.1172 32.5002 45.5207 32.776 45.9606 33.7762C46.2134 34.351 46.8842 34.6962 47.3727 34.949C48.5661 35.5639 49.8422 36.2104 51.1693 36.7609C51.6493 36.9602 52.0054 37.2981 52.1731 37.7137C52.2983 38.0224 52.3031 38.3384 52.1889 38.6021C51.3358 40.583 52.8852 41.2988 53.629 41.6427C53.7408 41.695 53.8441 41.7411 53.9316 41.7885C54.9804 42.3549 56.1556 42.6635 57.2906 42.9649C57.7816 43.0925 58.2896 43.2274 58.7708 43.3781C58.8243 43.3951 58.9021 43.445 58.9993 43.5118L57.1873 45.9557L53.4819 43.6346C53.341 43.5471 53.1672 43.5349 53.0153 43.5969C52.8634 43.6613 52.7528 43.7974 52.7175 43.959C52.3141 45.8719 53.4467 46.6885 54.3557 47.346C54.6328 47.5465 54.8977 47.7361 55.1165 47.9488C54.9597 48.4471 54.6608 48.458 53.8842 48.4179C53.3896 48.3924 52.8306 48.3632 52.3141 48.6063C52.1597 48.6804 52.0516 48.8274 52.0297 49C52.0078 49.1701 52.0734 49.3415 52.2047 49.4521L53.3021 50.3757C53.2061 50.3708 53.1113 50.3684 53.0189 50.3648C51.7089 50.3149 50.5762 50.2724 49.4691 50.1132C49.1628 50.067 48.6974 49.6696 48.3122 49.1191C47.2318 47.583 45.7819 47.1917 44.0003 47.9585C43.897 48.0023 43.7889 48.0703 43.6832 48.1372C43.6491 48.159 43.6042 48.187 43.5677 48.2076C43.4948 48.187 43.417 48.1651 43.338 48.1444C43.0816 48.074 42.5615 47.9318 42.4193 47.8151C42.3549 47.5793 42.3767 47.3545 42.4813 47.2063C42.587 47.0519 42.7875 46.9681 43.0755 46.9535C43.9262 46.9109 44.7745 46.8502 45.466 46.8004L46.1562 46.7517C46.3701 46.7372 46.55 46.5925 46.6096 46.3872C46.7299 45.9703 46.8283 45.5839 46.9219 45.2193C47.1054 44.5096 47.2622 43.8958 47.5028 43.3405C48.0035 42.1847 48.1007 41.4094 47.8236 40.7495C47.5356 40.0604 46.8648 39.5549 45.5778 39.0566C45.3165 38.9569 45.1439 38.8233 45.0892 38.7358L45.0528 38.6762C43.8424 36.7245 43.7536 36.6467 41.859 35.9175C41.6597 35.841 41.4337 35.8969 41.2939 36.0597L40.7799 36.6552C40.7714 36.3575 40.7021 36.0549 40.4359 35.8373C40.0592 35.5299 39.5342 35.6234 39.1721 35.7207C38.6446 35.8616 38.1378 36.0755 37.6894 36.2651C37.501 36.3453 37.3188 36.4231 37.1425 36.4911C36.9092 36.5811 36.7767 36.8278 36.8302 37.072C36.8898 37.3406 36.9444 37.6056 36.9991 37.8632C37.1231 38.455 37.241 39.0165 37.3905 39.5792C37.5351 40.12 37.7076 40.6535 37.9069 41.272C37.9604 41.4349 38.0151 41.6075 38.0734 41.7873C37.6274 41.9502 37.2009 42.1738 36.7852 42.3913C35.6514 42.9868 34.5771 43.5471 33.1321 42.9819C32.9097 42.8944 32.6545 42.9759 32.5245 43.1764C32.3799 43.3976 32.2365 43.6224 32.0955 43.846C31.7564 44.3832 31.4344 44.8911 31.0637 45.3688C30.772 45.7479 30.512 45.963 30.405 46.0068C28.5505 45.7674 27.7582 46.8721 27.2222 47.9865C27.125 48.1906 26.724 48.4021 26.4056 48.5722C26.3035 48.6257 26.205 48.6792 26.1102 48.7326C24.229 49.7997 22.9262 51.1401 22.1314 52.8293C21.9819 53.1453 21.8009 54.0531 21.9418 54.3606C22.0026 54.4955 22.1278 54.6036 22.27 54.6438C23.0283 54.8564 23.4378 55.4981 23.9155 56.2418C24.5328 57.2056 25.2304 58.2944 26.8212 58.4597C27.4021 58.5193 27.9939 58.9252 28.6198 59.3566C29.0889 59.6774 29.5726 60.0104 30.1012 60.234C31.3894 60.7773 32.7165 61.2318 33.9998 61.6717C34.4495 61.8248 34.8955 61.9792 35.3354 62.1335C35.3962 62.4009 35.4545 62.6743 35.5116 62.949C35.717 63.9188 35.9285 64.9189 36.3259 65.8656C36.6455 66.6252 37.9313 67.0262 38.6325 66.9655C38.9168 66.9387 39.2024 66.7431 39.4795 66.3846C39.7724 66.0054 40.0835 65.3917 40.0033 64.9068C39.7226 63.2188 40.2038 62.2417 41.7278 61.4214C42.3658 61.0774 42.8021 60.5354 42.9552 59.8962C43.1253 59.1804 42.9382 58.3795 42.4241 57.6406C42.0438 57.0913 41.6816 56.5286 41.4531 56.1786L41.3899 56.0778L42.3354 51.0247C42.6137 50.9833 42.8872 50.9432 43.1606 50.9007C44.1085 50.7561 45.0054 50.62 45.9071 50.5653C46.1332 50.5531 46.5549 50.6127 47.2293 50.987C47.9597 51.3917 48.7241 51.8474 49.3439 52.4283C49.8422 52.895 50.1156 53.4285 50.0877 53.5938C49.7486 55.5309 51.0319 56.1786 52.0637 56.6976L52.359 56.8483C53.6326 57.5118 54.4056 56.7024 54.9172 56.1677C55.0873 55.9903 55.2465 55.8226 55.4033 55.7132C55.7266 55.4872 55.9429 55.1542 56.1227 54.8273C56.2285 54.9731 56.3293 55.1116 56.429 55.2465C56.8859 55.8712 57.2469 56.3646 57.4401 56.8884C57.6321 57.4097 57.9493 57.8387 58.2543 58.2543C58.7441 58.9215 59.1682 59.4976 59.0661 60.3823C58.9823 61.1188 59.8743 61.724 60.8198 62.3632C61.0191 62.4981 61.2087 62.6269 61.374 62.7484C62.3304 63.4509 63.1483 63.9491 63.9491 64.3198C64.5385 64.5896 64.8764 64.891 64.9566 65.2082C65.0283 65.4998 64.9019 65.8912 64.5787 66.3748C63.6927 66.1901 62.9307 66.4222 62.0266 67.1259C61.4262 67.5962 60.454 67.9134 59.1391 68.0714C58.4828 68.1516 57.812 68.12 57.1023 68.0859C56.4667 68.0568 55.8104 68.0252 55.1542 68.0787C54.5198 68.1309 53.9304 68.363 53.358 68.5891C53.1222 68.6814 52.8877 68.775 52.6495 68.8528C52.3955 68.9366 52.2521 69.2028 52.3177 69.4592L52.4514 69.9903C52.5109 70.226 52.737 70.3828 52.9752 70.3707C53.1453 70.3597 53.3167 70.3451 53.4868 70.3306C53.8708 70.3002 54.233 70.2686 54.5903 70.2747C54.8649 70.2795 55.1493 70.316 55.3924 70.35C55.4142 70.6113 55.4264 70.8726 55.441 71.1278C55.4872 72.0453 55.5309 72.913 55.9259 73.6628C56.299 74.3738 56.9941 74.8538 57.7293 75.363C57.8569 75.4505 57.9846 75.5405 58.1146 75.6304C58.0344 75.679 57.9566 75.7276 57.8752 75.7762C57.0464 76.283 56.1896 76.8068 55.2781 77.2273C55.1724 77.2601 54.7969 77.1434 54.5198 77.0571C54.4882 77.0474 54.4578 77.0365 54.425 77.0267L55.4689 75.9184C55.571 75.8102 55.6111 75.6571 55.5941 75.5089C55.5771 75.3618 55.4872 75.2221 55.3644 75.1394L55.3207 75.1066C55.1943 75.0094 54.9306 74.8076 54.617 74.928L53.8271 75.2233C52.4891 75.7227 51.1073 76.2417 49.7705 76.8189C49.5056 76.9332 48.6111 77.367 48.2259 78.1314C47.5356 79.5035 46.3872 79.9677 44.958 80.4295C44.1061 80.703 43.5106 81.5038 42.9333 82.2755C42.6915 82.5976 42.4655 82.9026 42.2273 83.1627L41.701 83.7326L40.9245 82.8321C40.7908 82.679 40.5769 82.6182 40.3825 82.6826C40.188 82.7458 40.0519 82.9221 40.0373 83.125C40.024 83.2891 40.0057 83.4507 39.9887 83.6123C39.9462 83.9866 39.9024 84.3731 39.9352 84.7681C39.9644 85.1193 40.0568 85.4851 40.1467 85.8387C40.2464 86.2361 40.3995 86.8389 40.2877 87.0127C39.8672 87.6556 39.1721 88.1538 38.438 88.68C38.1597 88.8806 37.8814 89.0787 37.6165 89.2877C37.5071 89.3752 37.3491 89.4457 37.1826 89.5186C37.0563 89.5757 36.9286 89.6328 36.8083 89.7009C33.233 91.6842 32.9802 92.2918 34.1068 96.1977C34.3984 97.2125 34.4507 98.0766 33.8005 98.9054C32.8052 98.028 32.2741 97.0083 32.1806 95.8016C32.0712 94.3712 31.3615 93.659 30.0101 93.6262C29.795 93.6214 29.5458 93.5266 29.2809 93.4269C29.0087 93.3236 28.7267 93.2167 28.412 93.1754C28.1191 93.1352 27.825 93.0696 27.5115 93.0016C26.2816 92.7269 24.7503 92.3891 23.4573 94.0479C23.2774 94.2788 22.0913 94.4332 21.5675 94.1658C19.126 92.9274 17.1816 94.037 15.4693 95.0189C15.2955 95.1174 15.1181 95.2097 14.9406 95.3021C14.5943 95.4819 14.237 95.6667 13.904 95.9036L13.7849 95.9863C13.2575 96.3545 12.6595 96.7714 12.679 97.3425C12.7155 98.3524 12.4262 99.3101 12.1175 100.324C11.7748 101.454 11.4188 102.623 11.5306 103.909C11.6521 105.327 12.3752 106.588 13.5139 107.372C14.6635 108.162 16.1194 108.389 17.5109 107.99L17.8597 107.891C19.3302 107.479 20.8505 107.054 21.7863 105.154C21.971 104.779 22.8351 104.528 23.67 104.285C23.9471 104.206 24.2302 104.123 24.5109 104.033C24.5328 105.388 23.992 106.463 23.4257 107.592C23.0016 108.438 22.5628 109.309 22.3842 110.301C22.3429 110.536 22.4705 110.769 22.6917 110.86C23.5873 111.225 24.534 111.091 25.4503 110.962C26.82 110.768 27.9161 110.612 28.7656 111.94L28.6733 112.252C28.542 112.695 28.395 113.195 28.237 113.689C27.7533 115.212 28.0486 116.765 29.0087 117.746C29.8655 118.618 31.105 118.899 32.3993 118.514C32.5561 118.466 32.7068 118.43 32.8526 118.401C32.533 118.629 32.1866 118.995 31.7516 119.485L26.109 116.758C25.6411 114.316 24.0601 112.932 21.4047 112.644C20.3036 112.525 19.0191 111.934 18.1307 111.14C16.7271 109.885 15.2153 109.456 13.7594 109.896C11.9693 110.442 10.4344 109.855 8.81076 109.236C8.39392 109.078 7.9783 108.918 7.56024 108.78C6.71806 108.499 5.93542 108.022 5.1066 107.519C4.7967 107.331 4.48802 107.141 4.17691 106.965C2.91302 106.246 2.46215 105.718 3.13299 104.496C3.46476 103.889 3.02604 102.997 2.59097 102.209C2.41719 101.895 2.27865 101.578 2.1717 101.241C2.19722 101.048 2.22396 100.853 2.25313 100.661C2.31389 100.24 2.37587 99.8205 2.44149 99.4012C2.55573 98.6757 2.67483 97.9514 2.80243 97.2295C2.82188 97.1104 2.84253 96.9938 2.86441 96.8747C3.02118 96.0033 3.18889 95.138 3.36389 94.274C3.38576 94.1658 3.41007 94.0576 3.43194 93.9495C7.64167 73.5984 17.1755 55.1748 30.5035 40.1929L31.2424 41.9016C31.3068 42.0486 31.438 42.158 31.5948 42.1944C31.7516 42.2285 31.9156 42.1896 32.0396 42.0826C34.5358 39.9146 35.4983 38.4818 34.3596 36.0646C36.4316 33.9512 38.579 31.9144 40.8054 29.9627C41.0776 29.9554 41.3875 29.9748 41.6913 30.0222ZM40.4311 56.4582L40.6036 56.7231C40.8358 57.0816 41.2052 57.654 41.5929 58.2155C41.9405 58.7149 42.0741 59.2278 41.9708 59.6604C41.8845 60.0189 41.6342 60.3191 41.2465 60.5293C39.3446 61.5563 38.6531 62.9575 39.0068 65.066C39.0201 65.2628 38.6944 65.828 38.4976 65.9568C38.0418 65.9738 37.3455 65.6542 37.2604 65.4719C36.9007 64.6139 36.699 63.6599 36.5045 62.7375C36.4255 62.3608 36.3465 61.9901 36.259 61.6267C36.2177 61.4602 36.0974 61.3253 35.9382 61.2694C35.4108 61.0799 34.8736 60.8964 34.3316 60.7116C33.0641 60.279 31.7528 59.8293 30.4974 59.2995C30.0635 59.1172 29.6431 58.8292 29.1983 58.5217C28.4946 58.038 27.7667 57.5373 26.9293 57.451C25.8247 57.3368 25.3373 56.576 24.7722 55.6938C24.3201 54.9865 23.8122 54.1965 22.925 53.8016C22.9493 53.6096 22.9955 53.3738 23.0502 53.2571C23.7526 51.7635 24.9193 50.5701 26.6134 49.6089C26.6997 49.5602 26.7908 49.5116 26.8832 49.463C27.3583 49.2115 27.8967 48.9247 28.1385 48.4215C28.7134 47.2233 29.2639 46.8672 30.3102 47.0118C30.7648 47.0726 31.291 46.7299 31.867 45.9861C32.2122 45.5413 32.5172 45.0686 32.8125 44.6031L31.7175 47.5891C31.641 47.7993 31.709 48.0339 31.8877 48.1688L33.3083 49.2346C33.3958 49.3002 33.504 49.3366 33.6109 49.3366C33.6365 49.3366 33.6632 49.3354 33.6899 49.3306C33.8248 49.3099 33.9451 49.2346 34.0253 49.124L34.9842 47.7774C34.9988 47.7908 35.0122 47.8054 35.0267 47.82C35.4071 48.1955 35.8373 48.6221 36.4498 48.6221C36.4547 48.6221 36.4583 48.6221 36.462 48.6221C36.8995 48.6184 37.3285 48.3936 37.7733 47.9378C37.8741 47.8333 37.9264 47.6924 37.9155 47.5465C37.9045 47.4031 37.8328 47.2694 37.7161 47.1807L33.7762 44.1924C35.1616 44.388 36.2639 43.8083 37.258 43.287C37.8024 43.0026 38.3141 42.7328 38.8281 42.6149C38.9655 42.5845 39.0833 42.4958 39.1538 42.3743C39.2243 42.2516 39.2401 42.1045 39.1976 41.9708C39.0821 41.599 38.974 41.2672 38.8755 40.9609C38.6799 40.3545 38.5097 39.8319 38.3736 39.3179C38.2314 38.7807 38.1172 38.2326 37.9957 37.6542C37.9689 37.5266 37.9422 37.399 37.9142 37.2689C37.9714 37.2458 38.0297 37.2203 38.0892 37.1948C38.5255 37.0101 38.9788 36.8193 39.4382 36.6953C39.6083 36.6503 39.7141 36.6394 39.7736 36.6382C39.7797 36.7306 39.7724 36.8764 39.7663 36.9809C39.7444 37.3637 39.7153 37.8413 40.0373 38.1986C40.1333 38.3056 40.2694 38.3675 40.4141 38.3675C40.4153 38.3675 40.4177 38.3675 40.4189 38.3675C40.5648 38.3663 40.7021 38.3019 40.7981 38.1925L41.8335 36.9918C43.1399 37.501 43.2116 37.6165 44.1997 39.2097L44.2361 39.2681C44.4865 39.6715 44.9604 39.9 45.2193 40.0009C46.2097 40.3849 46.7286 40.7361 46.8976 41.1408C47.0556 41.5175 46.9583 42.0741 46.5828 42.9394C46.3082 43.5689 46.1429 44.2179 45.9484 44.9701C45.8828 45.2253 45.8135 45.4903 45.7382 45.7698L45.3991 45.7929C44.7149 45.8439 43.874 45.9047 43.0318 45.9448C42.2625 45.9825 41.859 46.3385 41.6561 46.6278C41.3644 47.0458 41.2951 47.6036 41.4689 48.1578C41.6476 48.7302 42.3743 48.9295 43.0743 49.1215C43.1849 49.1519 43.2918 49.1811 43.3891 49.209C43.7257 49.3135 44.0161 49.1264 44.2288 48.9903C44.2884 48.9526 44.3467 48.9125 44.405 48.887C45.7564 48.3049 46.6776 48.5491 47.487 49.7C47.5721 49.8203 47.7009 49.9929 47.8649 50.1752C47.8163 50.1484 47.7689 50.1229 47.7203 50.0962C47.0082 49.7012 46.3811 49.5153 45.8488 49.5505C44.9009 49.6089 43.9821 49.7486 43.0099 49.8957C42.6247 49.9552 42.2346 50.0123 41.8372 50.067C41.6208 50.0974 41.4495 50.2615 41.4094 50.4741L40.3594 56.0839C40.3326 56.2151 40.3594 56.3488 40.4311 56.4582ZM33.1345 44.1C33.1431 44.0854 33.1516 44.0708 33.1601 44.0575C33.171 44.0599 33.1832 44.0623 33.1953 44.0648C33.171 44.0745 33.154 44.0891 33.1345 44.1ZM33.6182 45.3444L36.5726 47.5842C36.5288 47.6012 36.4863 47.6109 36.4498 47.6097C36.253 47.6097 36.0026 47.3618 35.7377 47.1005C35.5736 46.9377 35.4023 46.7688 35.209 46.6205C35.0984 46.5366 34.9599 46.5038 34.8262 46.522C34.6901 46.5415 34.5698 46.6168 34.4896 46.7286L33.5016 48.1153L32.7979 47.5866L33.6182 45.3444ZM64.4474 68.5587C64.524 68.9816 64.654 69.3802 64.9262 69.7023C65.3175 70.1616 65.8717 70.4083 66.4076 70.6453C66.7722 70.8082 67.1186 70.9601 67.3835 71.1667C67.7639 71.4644 68.0908 71.8655 68.4931 72.371L62.6451 71.5568L64.4474 68.5587ZM33.5927 36.8424C34.1201 38.15 33.809 39.0943 31.8852 40.8589L31.2363 39.3604C32.0104 38.5085 32.7955 37.6712 33.5927 36.8424ZM1.01111 117.601C1.01111 112.691 1.31979 107.853 1.91163 103.102C2.23247 103.742 2.24583 103.959 2.23854 104.008C0.977084 106.31 2.79392 107.345 3.66892 107.843C3.97153 108.015 4.2717 108.199 4.57431 108.381C5.41406 108.894 6.28299 109.421 7.23455 109.738C7.63924 109.873 8.04271 110.026 8.44497 110.181C10.1585 110.833 11.928 111.507 14.0498 110.865C15.4365 110.443 16.6651 111.192 17.4514 111.893C18.5038 112.834 19.9731 113.506 21.2905 113.649C23.5922 113.901 24.8172 115.021 25.149 117.176C25.1745 117.34 25.279 117.481 25.4297 117.554L31.6519 120.563C31.8561 120.664 32.1028 120.614 32.2523 120.441C32.6533 119.984 33.3983 119.132 33.6109 119.132H33.6134C33.803 119.16 34.3328 119.997 34.6172 120.445C35.6113 122.013 35.3366 123.727 33.8637 125.149L33.724 125.284C31.9363 127.006 29.9092 128.958 30.3917 132.109C30.3868 132.182 30.2786 132.374 30.2142 132.488C30.1778 132.553 30.1425 132.617 30.1097 132.679C29.0694 134.692 29.1934 135.265 30.9872 136.782C32.5439 138.094 33.8917 139.344 34.6427 141.344C35.6016 143.893 37.3905 147.422 41.8627 148.619C43.6163 149.089 44.0745 149.991 43.8253 152.478C43.6941 153.79 43.5325 155.125 43.3781 156.416C43.095 158.768 42.8021 161.201 42.6696 163.608C42.5736 165.374 42.4217 167.099 41.6208 168.796C40.7689 170.598 40.8248 172.481 40.8771 174.3C40.9123 175.472 40.9427 176.579 40.7519 177.669C40.6097 178.481 40.6194 179.308 40.6304 180.108L40.6328 180.44C40.6365 180.825 40.9622 180.989 41.2502 181.136C41.3389 181.182 41.441 181.232 41.537 181.292C41.6524 181.363 41.7922 181.384 41.9222 181.352C41.6901 182.148 41.2186 182.857 40.7325 183.59C40.3472 184.169 39.951 184.767 39.6873 185.405C39.6059 185.605 39.6594 185.832 39.8186 185.975L41.0825 187.103L39.7991 188.402C39.6594 188.543 39.6156 188.753 39.6861 188.939C39.8368 189.332 39.9474 189.752 40.0653 190.195C40.3424 191.246 40.6523 192.414 41.5819 193.291L40.9245 193.725C40.7823 193.82 40.696 193.979 40.6972 194.149C40.6972 194.32 40.7847 194.48 40.9281 194.572C41.6403 195.034 42.3306 195.479 43.0038 195.913C44.5241 196.891 45.9594 197.814 47.3752 198.765C48.1955 199.316 49.0097 199.517 49.7936 199.517C50.6625 199.517 51.4925 199.27 52.2484 198.985C52.6142 198.846 52.9752 198.694 53.3349 198.545L53.8344 198.338C54.0227 198.26 54.1455 198.079 54.1491 197.878C54.1528 197.676 54.0337 197.491 53.849 197.407C53.6509 197.32 53.4443 197.243 53.2365 197.167C52.8306 197.016 52.4477 196.875 52.178 196.651C51.9592 196.468 51.7198 196.286 51.4767 196.098C50.6807 195.488 49.8592 194.858 49.7012 194.2L49.649 193.994C49.2953 192.56 49.1519 191.491 50.5276 190.808C51.0806 190.535 51.3747 189.961 51.6578 189.407C51.8194 189.096 51.9859 188.772 52.1792 188.552C52.641 188.028 52.8366 187.539 52.7771 187.054C52.7175 186.572 52.4113 186.147 51.8377 185.75C51.4439 185.478 51.0332 185.224 50.5604 184.93C50.5069 184.897 50.4547 184.864 50.4 184.829C50.4632 184.777 50.5276 184.723 50.592 184.671C52.0188 183.501 53.3665 182.393 53.6399 180.444C53.7384 180.363 53.9936 180.24 54.1382 180.171C54.3071 180.09 54.4651 180.011 54.5793 179.938C54.7082 179.854 54.792 179.717 54.8078 179.563C54.8236 179.409 54.7689 179.257 54.6583 179.15L53.4236 177.942C53.4467 177.945 53.4661 177.946 53.488 177.947C54.3885 178.021 55.1019 178.081 55.6208 177.686C56.1847 177.26 56.4095 176.529 56.649 175.756C56.7243 175.514 56.8009 175.267 56.8884 175.026C56.926 175.015 56.9661 175.006 57.0063 174.995C57.3696 174.895 57.8217 174.774 58.2774 174.689C58.5436 174.639 58.8194 174.614 59.1099 174.588C59.4976 174.552 59.8974 174.514 60.296 174.415C61.4226 174.137 62.1675 173.619 62.509 172.881C62.8615 172.119 62.7582 171.168 62.204 170.06C62.1068 169.865 62.0144 169.67 61.9233 169.469C65.3163 170.2 65.9252 169.704 68.3302 165.928C68.645 165.433 69.2368 164.946 69.9939 164.555C71.5957 163.728 73.1585 161.385 72.8523 159.482C72.7016 158.548 72.9082 158.052 73.5887 157.709C74.0651 157.47 74.5378 157.2 74.9936 156.939C76.0679 156.325 77.0814 155.744 78.1606 155.517C80.2302 155.082 81.4236 154.203 82.7179 152.165C84.2649 149.731 84.9188 147.492 84.8385 144.905C84.8094 144.018 84.9528 143.721 85.0378 143.626C86.1729 142.372 87.4429 141.203 88.6703 140.07C89.6316 139.185 90.1359 137.675 89.9245 136.313C89.7714 135.321 89.2549 134.574 88.4734 134.208C87.7965 133.891 87.1707 133.47 86.5071 133.022C85.0707 132.055 83.588 131.056 81.5318 131.141C80.3505 131.194 79.0879 130.792 77.8665 130.404L77.7061 130.354C77.079 130.157 76.4786 129.882 75.8455 129.589C75.2257 129.304 74.5852 129.01 73.9132 128.794L73.6616 128.714C72.4597 128.333 71.5932 128.06 71.2457 126.764C70.2321 123.01 67.7311 120.992 63.8106 120.768C63.0061 120.723 62.1444 120.248 61.312 119.79C61.0969 119.672 60.8854 119.555 60.6764 119.447C60.0359 119.113 59.4344 118.683 58.7976 118.226C57.0609 116.983 55.0934 115.57 52.3286 116.591C52.2715 116.593 52.1184 116.544 52.0163 116.51C51.783 116.433 51.495 116.34 51.1899 116.385C50.2894 116.527 49.3974 116.226 48.4531 115.907C47.2123 115.489 45.8281 115.022 44.3589 115.662L44.3139 115.293C44.2969 115.157 44.2252 115.032 44.1134 114.949C44.0028 114.868 43.863 114.833 43.7269 114.857C40.9196 115.341 38.6045 116.56 36.6649 118.581C35.3148 117.498 34.0253 116.98 32.1113 117.547C31.1694 117.825 30.3236 117.645 29.7306 117.04C29.0342 116.329 28.83 115.163 29.1995 113.999C29.3599 113.496 29.5094 112.99 29.6406 112.541L29.7974 112.018C29.8363 111.886 29.8217 111.742 29.7524 111.622C28.5469 109.504 26.7507 109.758 25.3057 109.963C24.6531 110.056 24.0321 110.143 23.4792 110.042C23.6688 109.364 23.9896 108.722 24.3274 108.049C24.9885 106.733 25.7372 105.241 25.4613 103.263C25.4394 103.109 25.3483 102.972 25.2122 102.894C25.076 102.817 24.9132 102.805 24.7686 102.865C24.3372 103.041 23.8535 103.182 23.3856 103.317C22.2918 103.634 21.2589 103.933 20.8748 104.71C20.1396 106.203 19.0118 106.52 17.5851 106.919L17.229 107.02C16.1304 107.332 14.9844 107.158 14.0851 106.54C13.1979 105.93 12.6328 104.939 12.5368 103.824C12.4432 102.732 12.7543 101.708 13.0849 100.62C13.3984 99.5896 13.7217 98.5226 13.6913 97.3656C13.7898 97.2198 14.1872 96.9427 14.3609 96.8212L14.4861 96.7337C14.7632 96.5356 15.0743 96.3752 15.4036 96.2038C15.5932 96.1054 15.7828 96.007 15.9688 95.9024C17.6045 94.9655 19.1503 94.0795 21.1069 95.0724C21.9576 95.5038 23.7016 95.3835 24.2545 94.6726C25.1538 93.5193 26.0969 93.7271 27.2915 93.992C27.6111 94.0625 27.9429 94.1366 28.2759 94.1816C28.4752 94.2083 28.6927 94.2898 28.9224 94.3773C29.2384 94.4964 29.5969 94.6325 29.9846 94.6422C30.8231 94.6616 31.1002 94.9533 31.1707 95.883C31.2971 97.5321 32.0736 98.8811 33.5429 100.008C33.741 100.158 34.0217 100.144 34.2028 99.9675C35.6174 98.5979 35.4132 97.0861 35.079 95.9207C34.08 92.4535 34.1201 92.3538 37.3005 90.588C37.3953 90.5358 37.4974 90.4908 37.597 90.4458C37.8024 90.3535 38.0345 90.2502 38.2436 90.0861C38.4964 89.8868 38.7625 89.6972 39.0286 89.5064C39.8076 88.9498 40.6146 88.3714 41.1372 87.5681C41.4932 87.0236 41.3085 86.2969 41.1311 85.5944C41.0509 85.2809 40.9694 84.9564 40.9476 84.6891C40.9403 84.5967 40.9391 84.4995 40.9415 84.4023L41.3085 84.8288C41.4021 84.9382 41.5382 85.0026 41.6816 85.0038C41.8226 84.9977 41.966 84.9479 42.0632 84.841L42.9771 83.853C43.2505 83.5552 43.5045 83.2161 43.75 82.8868C44.2313 82.2427 44.7307 81.5755 45.274 81.3981C46.8161 80.901 48.272 80.3104 49.1361 78.5932C49.2844 78.2967 49.7024 77.9601 50.1776 77.7547C51.3163 77.2625 52.5 76.8116 53.6606 76.3754L53.1174 76.9526C52.9922 77.0851 52.9484 77.2747 53.0019 77.4484C53.0542 77.6222 53.1988 77.7535 53.3774 77.7924C53.6873 77.8604 53.9717 77.9491 54.2245 78.0293C54.7847 78.2043 55.2684 78.3563 55.7071 78.1545C56.6745 77.7085 57.5969 77.1446 58.4111 76.6464C58.7113 76.4641 59.0005 76.2854 59.2825 76.1201C59.4271 76.0363 59.5194 75.888 59.5316 75.7227C59.5438 75.5575 59.4757 75.3958 59.3457 75.2913C58.9981 75.0106 58.6505 74.77 58.3139 74.5366C57.6564 74.0809 57.0877 73.6872 56.8288 73.1974C56.5384 72.6457 56.5007 71.8861 56.4594 71.0828C56.4399 70.683 56.4181 70.2686 56.3658 69.8469C56.3378 69.616 56.1543 69.4325 55.921 69.4057C55.8432 69.396 55.7521 69.3839 55.6524 69.3681C55.3596 69.3255 54.995 69.2733 54.6146 69.2684C54.5623 69.266 54.5089 69.266 54.4578 69.2684C54.7252 69.1809 54.9865 69.1141 55.2453 69.0922C55.8335 69.0424 56.4302 69.0727 57.0609 69.1019C57.7816 69.1347 58.5278 69.1712 59.2667 69.0813C60.7882 68.899 61.8977 68.521 62.6561 67.928C63.1714 67.5257 63.5785 67.3422 64.0111 67.3373L61.391 71.6977C61.3035 71.8436 61.2962 72.0234 61.3679 72.1766C61.442 72.3309 61.5866 72.4366 61.7543 72.4597L69.6391 73.5583C69.6622 73.5608 69.6865 73.562 69.7095 73.562C69.8931 73.562 70.0644 73.4635 70.1543 73.2995C70.254 73.1148 70.2309 72.8863 70.0936 72.7283C69.8141 72.4038 69.5771 72.1049 69.3583 71.8314C68.9038 71.259 68.5089 70.7644 68.0142 70.378C67.6509 70.0948 67.2316 69.9089 66.8257 69.7278C66.3748 69.5285 65.9471 69.3401 65.7052 69.0557C65.4792 68.7908 65.4208 68.2549 65.3637 67.7384C65.3418 67.5366 65.3139 67.341 65.2823 67.1465C65.6906 66.5899 66.1488 65.7988 65.9422 64.97C65.783 64.3307 65.2714 63.8179 64.3781 63.4059C63.6417 63.0668 62.8785 62.6002 61.9792 61.9391C61.8054 61.8115 61.6024 61.6754 61.3946 61.5344C60.9717 61.2476 60.1903 60.7189 60.0821 60.4698C60.2158 59.2096 59.6094 58.3868 59.0759 57.6613C58.8 57.287 58.5411 56.9333 58.3965 56.5444C58.1535 55.887 57.7354 55.3158 57.2517 54.6547C57.0184 54.3375 56.7656 53.9911 56.5019 53.595C56.4083 53.454 56.2504 53.3689 56.0814 53.3689C56.079 53.3689 56.0778 53.3689 56.0766 53.3689C55.9052 53.3714 55.746 53.4589 55.6549 53.6023C55.5504 53.7651 55.4568 53.9438 55.362 54.1224C55.1931 54.4444 55.0339 54.7483 54.8333 54.888C54.5927 55.0557 54.3885 55.2684 54.1929 55.4738C53.6314 56.062 53.3847 56.2418 52.8342 55.9563L52.5255 55.7995C51.4451 55.2538 50.891 54.9184 51.0915 53.7736C51.2483 52.8792 50.2457 51.8863 50.0439 51.6955C49.8264 51.4925 49.5967 51.3042 49.3597 51.128C50.5106 51.292 51.6615 51.3358 52.991 51.3856C53.5427 51.4063 54.126 51.4281 54.7483 51.4609C54.9658 51.4719 55.1651 51.3431 55.2453 51.1413C55.3243 50.9396 55.2672 50.7099 55.1007 50.5689L53.753 49.4339C53.7821 49.4351 53.8137 49.4363 53.8441 49.4387C54.6498 49.4788 55.87 49.5432 56.1823 47.905C56.2115 47.7531 56.1701 47.5988 56.0705 47.4809C55.7448 47.1005 55.345 46.8125 54.9597 46.5354C54.2901 46.0517 53.7627 45.6714 53.6715 44.9495L57.0585 47.0714C57.2833 47.2099 57.5762 47.1552 57.733 46.9438L60.138 43.699C60.2207 43.5859 60.2535 43.4425 60.228 43.304C60.2036 43.1667 60.1198 43.0439 60.0007 42.9686C59.8682 42.8859 59.7613 42.8094 59.6677 42.745C59.4708 42.6076 59.2995 42.4885 59.0856 42.4217C58.5813 42.2625 58.0611 42.1264 57.5604 41.9939C56.4314 41.6962 55.3668 41.4167 54.425 40.9075C54.3193 40.8503 54.1965 40.7932 54.0641 40.7325C53.1976 40.3326 52.6884 40.0349 53.1295 39.0116C53.3519 38.4951 53.3495 37.9009 53.1222 37.3406C52.8512 36.6734 52.3007 36.1387 51.5691 35.8349C50.2773 35.2977 49.0219 34.6622 47.8479 34.0557C47.5332 33.8929 47.0069 33.6231 46.8976 33.3764C46.4467 32.3495 45.8038 31.421 44.1352 31.5814C43.8521 31.6057 43.4535 31.4076 43.163 31.2606C43.112 31.2339 43.0634 31.2083 43.0148 31.1852C42.9613 30.9762 42.9139 30.7587 42.8689 30.5472C42.6964 29.7439 42.5736 29.1642 42.0547 29.0646C42.0061 29.0561 41.9465 29.0464 41.8846 29.0354C43.7634 27.4276 45.6896 25.8745 47.6693 24.387C47.7021 24.4356 47.741 24.4806 47.7908 24.517C48.0351 24.6896 48.2635 24.8597 48.4835 25.0238C49.734 25.962 50.8132 26.7726 52.9594 26.3655C55.1615 25.9474 57.9663 25.7141 60.1222 27.6415L60.3641 27.8578C62.4471 29.7148 64.4146 31.4684 63.751 34.5601C63.6769 34.9016 63.9188 35.1385 64.0622 35.2807C64.0901 35.3075 64.1193 35.3342 64.1387 35.3585C64.242 35.4873 64.4012 35.5542 64.5653 35.5469C66.1609 35.446 66.9934 35.5359 67.3458 35.8507C67.4516 35.9455 67.5318 36.0804 67.5865 36.2651L65.7453 35.8422C65.484 35.7802 65.2191 35.9382 65.1462 36.1958C65.066 36.4766 64.9445 36.7609 64.8253 37.0368C64.4413 37.9264 63.9151 39.1441 65.3759 40.0884C65.879 40.4141 66.3578 40.5295 66.7965 40.4347C67.516 40.278 67.9389 39.6096 68.3132 39.0201C68.3144 39.0165 68.3181 39.0128 68.3193 39.0092C68.504 39.2608 68.6 39.5002 68.6049 39.7286C68.6122 40.0872 68.4043 40.4748 67.9668 40.9148C66.0127 42.875 65.8425 44.2628 67.2644 46.6205C67.821 47.5453 68.3375 48.5394 68.7981 49.5773C69.6767 51.5569 71.4547 53.1769 72.7939 54.188C73.63 54.8188 74.7043 55.0326 75.7398 55.2368C76.1663 55.3219 76.5698 55.4021 76.938 55.5066C76.9854 55.52 77.0316 55.5273 77.0778 55.5273C77.2953 55.5273 77.4958 55.3863 77.5615 55.1688C77.7596 54.5137 77.9747 53.8526 78.1885 53.1866C78.7148 51.5642 79.258 49.8896 79.6153 48.17C79.8802 46.8866 80.4125 46.629 81.2401 46.6181C82.3764 46.6047 83.1189 46.2352 83.8882 45.3019C85.4365 43.4231 86.9155 42.4849 88.8319 42.1665C90.3207 41.9186 91.6964 40.8771 92.9104 39.9583L93.32 39.6484C94.0346 39.1149 94.7418 37.947 94.6604 37.0587C94.5498 35.8811 94.2193 34.7484 93.9264 33.7458C93.8413 33.4554 93.7599 33.1759 93.6882 32.9122L93.9932 32.3981C94.4587 31.6167 94.8986 30.879 95.2778 30.1146C95.437 29.7901 95.279 29.5568 94.9703 29.2809L95.674 29.1059C95.8441 29.0634 95.9802 28.937 96.0337 28.7693C96.0872 28.6016 96.0507 28.4205 95.9365 28.2856L94.291 26.3569L95.5524 25.9547C95.725 25.9 95.855 25.7566 95.8927 25.5804C95.9316 25.403 95.8721 25.2194 95.7396 25.0979C94.8889 24.3226 94.4611 23.5983 94.4283 22.8825C94.3979 22.2092 94.7188 21.5177 95.4054 20.7642C95.7092 20.4325 95.5561 19.9938 95.3118 19.4882C96.4517 19.2925 97.1372 18.3811 97.7545 17.5595C98.113 17.0832 98.4825 16.5898 98.9224 16.2556C99.0743 16.1389 99.1472 15.9505 99.1132 15.7622C99.0792 15.5738 98.9418 15.4219 98.7608 15.3672C96.0495 14.5578 93.6894 15.5276 91.4144 16.5217L92.5726 14.367C92.6431 14.237 92.6516 14.0826 92.5969 13.9441C92.5434 13.8068 92.4316 13.6986 92.2918 13.65C91.6842 13.4385 91.0972 13.2137 90.5224 12.9938C89.2123 12.4918 87.9727 12.0167 86.6602 11.7615C85.1436 11.4661 83.5734 11.4212 82.0543 11.3774C81.5828 11.3628 81.1101 11.3507 80.641 11.3288C79.0283 11.2583 76.8444 11.1599 75.1151 12.6571C73.6033 12.1345 72.3747 12.8005 71.2785 13.3899C70.7681 13.6658 70.2406 13.9502 69.6938 14.1203C69.5394 14.1689 69.4155 14.2892 69.3632 14.4436C69.3122 14.5991 69.3389 14.7693 69.4361 14.9005L69.7436 15.3222L67.5476 13.5175C67.4066 13.4009 67.2146 13.3705 67.0469 13.4361C66.8755 13.5017 66.754 13.6512 66.7273 13.8323L66.4988 15.3161C65.9252 14.7899 65.2325 14.7036 64.6333 14.6283C64.2141 14.5773 63.8422 14.5274 63.5226 14.35C79.6967 5.83455 98.096 1.01111 117.601 1.01111C143.607 1.01111 167.65 9.57153 187.064 24.0212C186.968 24.0917 186.876 24.1707 186.787 24.2582C186.245 24.7929 185.962 25.5111 185.635 26.3436C185.518 26.6389 185.398 26.9415 185.261 27.255C185.234 27.2538 185.206 27.2502 185.177 27.2502C184.637 27.2125 183.818 27.1566 183.035 27.334C182.693 27.4106 180.965 27.8481 180.521 28.8908C180.261 29.5045 180.25 30.1644 180.489 30.7502C180.557 30.913 180.641 31.0674 180.745 31.2132L177.914 29.8825C177.714 29.7889 177.473 29.8351 177.324 30.0016C177.175 30.1656 177.15 30.4099 177.264 30.6007C177.551 31.0795 177.658 31.4575 177.562 31.6604C177.469 31.8609 177.119 32.0189 176.577 32.1089C176.399 32.138 176.248 32.2608 176.185 32.4297C176.12 32.5986 176.153 32.7894 176.268 32.9292L176.97 33.7811C176.618 33.741 176.377 33.4384 176.003 32.928C175.815 32.6703 175.621 32.4066 175.383 32.1769C175.182 31.9861 174.868 31.9898 174.673 32.1866C173.364 33.5064 173.839 34.8031 174.22 35.8422C174.307 36.0816 174.394 36.3174 174.456 36.5422C174.389 36.3477 174.312 36.1557 174.225 35.9698C173.7 34.8505 173.728 33.6924 173.758 32.4674C173.769 32.025 173.78 31.5681 173.763 31.1099C173.737 30.371 173.013 29.3951 172.353 29.2116C171.581 28.999 170.397 29.1156 169.822 29.6783C167.866 31.5936 167.475 34.7934 168.87 37.4585C168.975 37.6566 169.016 37.9325 169.051 38.274C168.998 38.2351 168.945 38.1962 168.891 38.1561C167.084 36.8241 165.215 35.4484 162.65 36.592C162.509 36.6552 162.404 36.7804 162.366 36.9286C162.293 37.2191 162.311 37.5399 162.331 37.851C162.342 38.0297 162.359 38.3128 162.328 38.4417C162.244 38.4405 162.026 38.4089 161.559 38.1877C161.181 38.009 160.773 38.1063 160.411 38.1913C160.3 38.2156 160.188 38.2436 160.084 38.2582C159.726 38.3068 159.335 38.4052 158.958 38.5024C158.521 38.6142 157.612 38.8451 157.443 38.703C155.927 37.4233 154.716 38.1719 153.832 38.7188C153.723 38.7856 153.615 38.8536 153.508 38.9144C152.593 39.4455 151.843 40.222 151.116 40.9719C150.98 41.1129 150.844 41.2538 150.708 41.3911C150.426 41.6755 150.253 42.0389 150.105 42.3634L150.014 42.3208C150.003 42.2346 149.991 42.1483 149.976 42.0632C149.926 41.7302 149.879 41.4179 149.951 41.2089C150.257 40.3314 150.448 39.6703 150.127 39.1465C149.784 38.5851 149.014 38.4405 147.875 38.28C147.738 38.2582 147.597 38.2995 147.489 38.387C147.38 38.4745 147.311 38.6021 147.3 38.7418L147.028 42.1884C146.857 42.2297 146.68 42.2661 146.51 42.3038C145.945 42.4241 145.364 42.5469 144.898 42.841C145.063 42.6186 145.209 42.3634 145.334 42.0778C146.044 40.4408 144.539 39.5767 143.974 39.251C143.552 39.008 143.123 38.7358 142.709 38.4708C141.625 37.7793 140.503 37.0648 139.26 36.7306C137.817 36.3417 136.725 35.4703 135.569 34.5479C134.828 33.9561 134.061 33.3436 133.205 32.8866C133.053 32.8052 132.87 32.8064 132.722 32.8915C132.536 32.9948 132.363 33.1151 132.202 33.2269C132.065 33.3217 131.859 33.4663 131.815 33.4821C130.164 33.25 128.768 33.8576 127.424 34.4434C126.47 34.8566 125.572 35.2479 124.601 35.3488C123.772 35.4351 122.696 36.5069 122.578 37.3601C122.118 40.7215 119.904 43.2432 118.279 44.8474C116.319 46.7845 114.17 48.6099 112.095 50.3745L111.981 50.4717C111.16 51.1693 110.948 51.8851 111.243 52.9448C111.406 53.5245 111.475 54.1333 111.55 54.7774C111.589 55.1116 111.627 55.4471 111.678 55.7788C111.865 56.9698 112.327 57.7536 113.051 58.1085C113.783 58.467 114.7 58.3479 115.778 57.7536C116.238 57.4997 116.71 57.2663 117.169 57.0403C117.209 57.022 117.248 57.0014 117.286 56.9832L118.496 59.8293L117.66 60.3519L117.437 57.8922C117.421 57.7111 117.307 57.5507 117.141 57.4766C116.975 57.4024 116.781 57.4207 116.634 57.5313C114.133 59.376 114.043 59.596 114.711 62.2429C114.907 63.0219 115.01 63.5845 114.877 63.8069C114.733 64.0464 114.077 64.225 113.418 64.3878C111.937 64.7524 111.216 65.162 111.008 65.755C110.613 66.8755 110.034 66.9448 108.79 66.9326L109.238 65.8912C109.315 65.7076 109.28 65.4962 109.147 65.3491C108.799 64.9688 108.459 64.6054 108.126 64.2505C107.405 63.48 106.723 62.7533 106.1 61.9901C105.109 60.776 104.639 59.7649 105.361 58.4682C105.438 58.3309 105.446 58.1668 105.383 58.021C105.321 57.8764 105.193 57.7682 105.043 57.7318C104.567 57.6127 104.198 57.5203 103.859 57.434L103.938 56.5347C103.962 56.2771 103.785 56.0413 103.531 55.9939C101.662 55.6281 101.228 56.9807 100.968 57.7877C100.935 57.891 100.902 57.9931 100.868 58.0903C99.9712 60.6023 101.361 62.1505 103.088 63.4521C101.344 64.6747 101.476 66.4186 101.592 67.9766C101.607 68.1576 101.622 68.3399 101.632 68.5234C101.64 68.6571 101.703 68.7847 101.804 68.8734C101.907 68.9634 102.042 69.0047 102.177 68.9962L107.301 68.5866C107.179 68.6231 107.055 68.6571 106.934 68.6936C105.925 68.9804 104.972 69.2526 104.787 69.9611C104.663 70.4326 104.468 70.4788 103.736 70.4679C103.116 70.4533 102.07 70.4326 101.896 71.7354C101.878 71.88 101.922 72.0247 102.018 72.1352C102.425 72.5995 102.926 73.0102 103.41 73.4064C104.807 74.5451 105.92 75.4566 105.158 77.412C104.136 77.6283 103.06 77.4849 102.015 77.3451C100.467 77.1398 98.8653 76.9271 97.3766 77.8252C97.2174 77.9224 97.1226 78.0986 97.1323 78.2833C97.1566 78.7622 97.2089 79.2033 97.2623 79.6286C97.3596 80.4149 97.4446 81.0943 97.2575 81.6083C96.6158 83.3948 97.0606 84.8385 97.5819 86.0137C97.6427 86.1535 97.7655 86.258 97.9125 86.2969C98.1677 86.3661 98.4229 86.4221 98.6733 86.4767C99.1606 86.5837 99.62 86.6833 100.009 86.8717C100.407 87.0661 100.812 87.212 101.217 87.308C101.075 87.3129 100.935 87.3785 100.84 87.4976C100.576 87.8257 100.352 88.1733 100.13 88.5075C99.733 89.1163 99.3575 89.6911 98.9346 89.854C97.0339 90.5905 96.2257 91.9273 96.3922 94.0661C96.4675 95.0335 96.1175 95.6958 95.3556 96.0337C92.7196 97.2016 91.3852 99.4352 90.0934 101.596C89.8431 102.015 89.5927 102.436 89.3314 102.849C88.7846 103.715 88.674 104.403 88.9085 105.478C89.3266 107.386 89.3436 108.804 88.9583 109.817C87.9047 112.585 88.4455 114.728 90.6585 116.56C90.966 116.814 91.2443 117.189 91.4023 117.567C92.6382 120.48 94.8354 122.415 96.8212 123.923C96.9366 124.012 97.0533 124.102 97.1651 124.189C98.2807 125.058 99.5434 126.047 101.364 124.786C101.47 124.714 101.846 124.681 102.114 124.78C104.522 125.66 106.744 125.008 108.89 124.379C109.243 124.276 109.593 124.172 109.945 124.076C111.528 123.642 112.244 123.933 112.78 125.227C113.148 126.113 113.611 126.683 114.782 126.786C115.97 126.892 116.758 127.024 117.015 127.362C117.28 127.709 117.198 128.522 116.964 129.805C116.927 130.016 116.901 130.23 116.877 130.447C116.836 130.808 116.798 131.148 116.69 131.44C116.048 133.185 116.923 134.383 117.639 135.133C119.192 136.761 120.182 139.014 120.582 141.828L120.663 142.372C120.961 144.376 121.242 146.268 119.97 148.18C119.12 149.456 117.894 151.962 119.22 154.418C120.761 157.274 121.508 160.484 121.507 164.231C121.507 165.382 121.751 166.485 122.195 167.333C123.359 169.56 124.201 171.455 123.61 173.824C123.413 174.61 123.569 175.414 124.039 176.033C124.483 176.618 125.149 176.965 125.863 176.985L126.377 176.999C126.997 177.017 127.627 177.034 128.258 177.034C129.114 177.034 129.973 177.002 130.82 176.887C132.125 176.71 133.315 176.192 134.003 175.498C134.201 175.298 134.404 175.098 134.604 174.898C136.562 172.95 138.588 170.935 139.04 167.93C139.221 166.736 139.492 166.34 140.254 166.161C142.101 165.731 142.045 164.122 142.026 163.593C142.015 163.271 142.016 162.947 142.019 162.624C142.02 162.113 142.023 161.583 141.976 161.056C141.763 158.673 142.324 157.693 144.584 156.494C145.171 156.183 147.107 155.059 147.352 153.652L147.429 153.213C147.846 150.846 148.277 148.4 147.277 145.828C146.728 144.416 146.598 142.591 146.937 141.065C147.406 138.966 148.705 137.294 150.081 135.522C150.589 134.868 151.113 134.193 151.585 133.502C151.606 133.475 151.696 133.416 151.754 133.377C151.867 133.303 152.006 133.211 152.126 133.08C152.497 132.667 152.905 132.256 153.3 131.861C154.258 130.898 155.249 129.901 155.907 128.704C156.885 126.925 157.575 124.972 158.244 123.082C158.436 122.544 158.624 122.007 158.822 121.473C158.988 121.022 158.99 120.556 158.99 120.062C158.99 119.853 158.99 119.637 159.005 119.413C159.015 119.256 158.953 119.105 158.836 119.001C158.72 118.898 158.562 118.854 158.407 118.882C158.117 118.936 157.861 118.982 157.625 119.023C157.14 119.109 156.75 119.18 156.365 119.265C156.033 119.34 155.703 119.428 155.374 119.516C155.061 119.599 154.749 119.683 154.434 119.753C153.345 120.001 152.697 120 152.335 119.75C152.007 119.523 151.789 119.002 151.638 118.082C151.753 118.165 151.899 118.198 152.043 118.166L152.768 118.01C154.053 117.735 155.382 117.451 156.614 116.933C157.419 116.595 158.121 116.06 158.797 115.544C159.43 115.061 160.028 114.607 160.685 114.314C163.215 113.187 164.923 111.389 166.064 108.654C166.76 106.985 166.504 105.768 165.206 104.589C164.68 104.112 164.159 103.601 163.655 103.107C163.422 102.878 163.189 102.65 162.952 102.421C162.782 102.255 162.517 102.232 162.32 102.365L162.257 102.407C159.882 104 159.882 103.997 158.23 101.991L157.996 101.708C156.912 100.4 155.794 99.0524 155.75 97.2927C156.548 97.0375 156.788 97.4264 157.233 98.2917C157.307 98.4339 157.378 98.5748 157.456 98.7122C159.259 101.91 159.911 102.324 163.17 101.797C163.695 103.138 164.812 103.804 166.455 103.741C166.982 103.718 167.514 103.759 168.077 103.802C168.758 103.854 169.467 103.907 170.174 103.839C171.134 103.748 171.763 103.843 172.347 104.605C172.83 105.235 173.397 105.794 173.948 106.333C174.225 106.607 174.502 106.879 174.765 107.158C174.801 107.196 174.84 107.245 174.874 107.293C174.558 107.816 174.57 108.269 174.645 108.574C174.78 109.109 175.224 109.586 175.83 109.851C176.384 110.096 177.028 109.95 177.595 109.823C177.623 109.817 177.649 109.811 177.678 109.804C178.127 114.99 179.625 120.266 182.249 125.915C182.312 126.05 182.431 126.149 182.574 126.188C182.716 126.23 182.869 126.203 182.993 126.119C185.76 124.237 186.054 121.697 185.978 119.463C185.925 117.948 186.125 116.943 187.325 115.975C188.745 114.83 190.011 113.473 191.236 112.16C191.834 111.519 192.453 110.855 193.078 110.231C193.218 110.091 193.478 109.988 193.731 109.885C193.81 109.855 193.885 109.825 193.96 109.792C194.619 109.512 195.282 109.243 195.989 108.955L196.338 108.812C196.614 109.659 197.101 110.416 197.575 111.154C198.53 112.642 199.433 114.045 198.733 116.167C198.674 116.346 198.72 116.543 198.851 116.678C198.982 116.813 199.178 116.864 199.358 116.81L201.837 116.074C201.963 116.576 202.101 117.075 202.236 117.564C202.654 119.085 203.05 120.523 203.169 121.996C203.211 122.51 203.222 123.031 203.235 123.537C203.272 125.161 203.31 126.843 204.31 128.535C204.836 129.426 204.985 130.567 205.141 131.777C205.145 131.797 205.146 131.815 205.15 131.835C204.466 131.131 203.77 130.407 203.179 129.636C202.25 128.426 201.147 128.26 199.767 128.386C199.62 128.399 199.485 128.476 199.399 128.597C199.313 128.717 199.285 128.869 199.321 129.013C199.363 129.184 199.388 129.347 199.411 129.496C199.471 129.871 199.526 130.224 199.778 130.5C202.185 133.152 203.581 136.423 204.808 139.555C205.113 140.332 205.428 141.138 205.846 141.889C206.357 142.806 207.407 143.522 208.289 143.552C208.307 143.552 208.327 143.555 208.345 143.555C208.78 143.555 209.134 143.377 209.345 143.052C210.061 141.949 210.546 140.673 210.713 139.457C210.772 139.036 210.689 138.711 210.468 138.491C210.125 138.15 209.638 138.217 209.247 138.272C209.177 138.282 209.106 138.293 209.04 138.299C209.033 138.278 209.024 138.257 209.017 138.238C208.978 138.145 208.938 138.054 208.899 137.979L206.947 134.305L207.772 134.661C207.939 134.734 208.135 134.71 208.28 134.599L208.726 134.257C208.916 134.112 208.978 133.856 208.877 133.64C208.574 132.994 208.513 132.27 208.448 131.5C208.34 130.217 208.216 128.762 206.846 127.591C204.797 125.838 204.45 123.731 205.725 120.443L209.283 125.237C209.447 125.459 209.762 125.508 209.987 125.345C210.247 125.154 210.518 124.955 210.795 124.749C211.451 124.265 212.129 123.764 212.829 123.281C214.212 122.33 214.758 120.889 214.285 119.428C213.617 117.361 212.913 115.82 212.07 114.58C211.225 113.338 210.936 112.339 211.208 111.612C211.455 110.957 212.191 110.442 213.402 110.08C213.685 110.463 213.804 110.759 213.772 111.003C213.739 111.256 213.529 111.522 213.141 111.796C212.734 112.084 212.875 112.595 213.054 113.244C213.103 113.419 213.151 113.594 213.178 113.74C213.206 113.887 213.297 114.016 213.428 114.089C213.56 114.163 213.716 114.174 213.857 114.121C213.991 114.07 214.136 114.031 214.28 113.988C214.692 113.872 215.16 113.74 215.469 113.385C215.865 112.93 215.993 111.985 215.732 111.446C215.521 111.006 215.458 110.672 215.542 110.455C215.669 110.133 216.197 109.906 216.872 109.645C218.192 109.133 219.523 108.485 220.829 107.716C223.141 106.355 223.995 104.103 224.818 101.922C225.049 101.316 225.285 100.688 225.548 100.102C226.316 98.3901 225.655 96.6899 224.975 95.2304C224.824 94.9096 224.642 94.6179 224.463 94.3347C224.332 94.1257 224.198 93.9167 224.085 93.6979C223.226 92.0536 223.443 91.1835 224.978 90.1129C225.213 89.95 225.452 89.7957 225.692 89.6425L226.032 89.4238C226.212 89.3059 226.298 89.0884 226.247 88.8806L226.128 88.3884C226.073 88.1623 225.87 88.0019 225.637 88.0019H222.242L221.742 87.1233L224.254 84.9236V86.354C224.254 86.6335 224.481 86.8596 224.761 86.8596C224.857 86.8596 224.93 86.8644 224.986 86.8668C225.125 86.8766 225.299 86.8863 225.484 86.7672C226.121 86.354 226.72 85.9627 226.858 85.953C226.993 86.0587 227.211 86.7392 227.43 87.4271C227.499 87.6422 227.761 88.3543 228.3 88.533C229.367 88.8818 229.367 89.4955 229.274 90.6415C229.254 90.8858 229.234 91.1288 229.232 91.367C229.227 91.7049 229.228 92.0427 229.231 92.4644L229.232 93.1972C229.232 93.3783 229.329 93.5448 229.486 93.6347C229.641 93.7247 229.835 93.7259 229.993 93.6347L231.529 92.7439C233.274 100.755 234.203 109.069 234.203 117.595C234.203 130.229 232.176 142.398 228.443 153.798C228.441 153.799 228.438 153.799 228.436 153.803C227.955 154.245 227.422 154.681 226.905 155.101C225.67 156.107 224.39 157.149 223.575 158.495C222.596 160.109 221.834 161.013 220.383 161.475C219.534 161.746 218.667 162.147 217.807 162.664C217.6 162.789 217.388 162.909 217.176 163.031C215.73 163.856 214.091 164.792 213.901 167.029C213.873 167.364 213.84 167.697 213.807 168.029C213.645 169.682 213.477 171.392 213.862 173.169L213.894 173.314C214.482 176.02 215.037 178.575 213.748 181.134C213.513 181.597 213.823 182.086 214.216 182.709C214.227 182.726 214.238 182.743 214.249 182.76C206.331 194.463 196.344 204.655 184.822 212.812C184.632 212.761 184.441 212.711 184.263 212.661C183.303 212.392 182.473 212.158 181.668 212.354C178.98 213.008 176.47 214.415 174.412 216.426C173.319 217.492 172.397 218.116 171.308 218.512C171.211 218.374 171.118 218.224 171.024 218.069C170.576 217.339 169.966 216.344 168.496 216.605C168.382 216.549 168.184 216.369 168.151 216.289C167.744 214.684 166.453 214.628 165.509 214.589L165.296 214.579C164.194 214.523 163.074 214.494 161.992 214.469C160.974 214.443 159.922 214.416 158.893 214.367C157.614 214.306 156.812 214.204 156.403 212.946C156.189 212.284 155.607 211.738 154.805 211.446C153.836 211.094 152.762 211.17 152.001 211.647C151.099 212.212 150.268 212.89 149.388 213.607C149.036 213.894 148.672 214.191 148.287 214.494C144.647 214.106 142.179 215.495 140.363 218.963C137.754 218.173 137.224 217.907 136.353 217.034C136.177 216.859 135.9 216.837 135.699 216.983C131.11 220.282 127.215 220.933 123.07 219.09C122.086 218.653 120.049 218.576 119.357 219.371C118.59 220.253 117.867 220.298 116.718 220.066C116.377 219.998 116.038 219.908 115.702 219.819C114.386 219.471 112.894 219.074 111.368 220.015C111.226 220.042 110.827 219.896 110.194 219.58C109.586 219.277 108.989 218.909 108.461 218.584C108.242 218.45 108.031 218.32 107.83 218.201C107.672 218.107 107.474 218.107 107.319 218.199C107.077 218.339 106.85 218.505 106.652 218.65C106.412 218.825 106.051 219.074 105.92 219.074C105.105 218.983 104.502 219.42 103.974 219.8C103.355 220.25 103.005 220.472 102.464 220.212C102.339 220.152 102.195 220.146 102.069 220.195C101.94 220.244 101.837 220.341 101.782 220.467C101.421 221.296 100.832 221.362 99.8217 221.405C99.5385 221.418 99.2481 221.431 98.9564 221.472C98.474 221.542 98.0219 222.051 97.8809 222.482C97.5175 223.593 96.7021 223.819 95.4005 224.1L95.0906 224.167C94.7151 224.25 94.3299 224.31 93.9203 224.372C92.3101 224.616 90.5042 224.891 89.4627 226.827C88.4017 226.085 87.0576 225.429 85.5799 226.762C85.4705 226.862 85.4097 227.002 85.4122 227.15C85.4158 227.297 85.4826 227.434 85.5957 227.528L86.8608 228.576L85.2809 229.622C36.6564 215.57 1.01111 170.672 1.01111 117.601ZM87.9873 139.319C86.7429 140.467 85.4559 141.652 84.2905 142.941C83.8396 143.438 83.8068 144.267 83.8287 144.93C83.9016 147.299 83.2976 149.361 81.866 151.614C80.7248 153.409 79.7392 154.141 77.954 154.518C76.7193 154.778 75.5866 155.424 74.4929 156.051C74.0481 156.304 73.5875 156.568 73.1366 156.794C72.0538 157.337 71.6358 158.266 71.8545 159.633C72.0866 161.072 70.7741 163.004 69.5346 163.644C69.0047 163.918 68.0325 164.505 67.4807 165.373C65.083 169.138 65.0222 169.163 61.1625 168.245C60.9729 168.199 60.7773 168.267 60.6557 168.416C60.5318 168.566 60.505 168.773 60.5865 168.948L60.8113 169.445C60.9729 169.81 61.1321 170.158 61.3023 170.501C61.713 171.321 61.8115 171.976 61.5951 172.445C61.3885 172.891 60.8721 173.221 60.0566 173.423C59.7321 173.503 59.3858 173.536 59.02 173.568C58.7186 173.596 58.4075 173.627 58.0964 173.684C57.6017 173.776 57.1266 173.905 56.7462 174.008C56.6113 174.045 56.4922 174.078 56.3913 174.102C56.2346 174.141 56.1057 174.253 56.045 174.403C55.9016 174.757 55.791 175.109 55.6865 175.448C55.4969 176.062 55.3182 176.642 55.0144 176.872C54.8054 177.032 54.2087 176.981 53.5755 176.931C53.149 176.897 52.6628 176.856 52.1221 176.856C51.9167 176.856 51.7307 176.981 51.653 177.17C51.5752 177.361 51.6201 177.579 51.7672 177.723L53.4528 179.373C53.0651 179.569 52.703 179.814 52.6495 180.232C52.449 181.827 51.3479 182.732 49.9516 183.879C49.7085 184.078 49.4618 184.282 49.2139 184.493C49.0924 184.598 49.0267 184.755 49.0389 184.914C49.0498 185.076 49.1373 185.219 49.2734 185.306C49.5493 185.479 49.7997 185.636 50.0318 185.778C50.4936 186.065 50.8946 186.312 51.2689 186.571C51.4865 186.721 51.7502 186.945 51.7769 187.164C51.8036 187.386 51.6007 187.669 51.4269 187.867C51.1474 188.182 50.9517 188.562 50.7622 188.93C50.5531 189.339 50.3356 189.761 50.0816 189.888C47.8722 190.986 48.3717 193.012 48.6707 194.222L48.7193 194.424C48.9623 195.43 49.9297 196.173 50.8642 196.89C51.0964 197.067 51.3248 197.242 51.5326 197.416C51.766 197.61 52.026 197.752 52.2934 197.869C52.1609 197.923 52.0273 197.976 51.8936 198.026C50.6358 198.502 49.2868 198.818 47.9415 197.915C46.5184 196.96 45.0783 196.033 43.5543 195.052C43.0877 194.751 42.6149 194.447 42.1313 194.135L42.7292 193.74C42.8738 193.646 42.9576 193.484 42.9576 193.314C42.9564 193.142 42.8689 192.984 42.7243 192.891C41.6512 192.205 41.3583 191.099 41.0484 189.927C40.9573 189.581 40.8637 189.226 40.7471 188.878L42.1811 187.427C42.2783 187.329 42.3318 187.194 42.3269 187.056C42.3221 186.918 42.2613 186.787 42.158 186.695L40.7762 185.461C40.9938 185.025 41.2793 184.593 41.5807 184.141C42.5335 182.705 43.6127 181.079 42.8082 178.713C42.7365 178.501 42.5335 178.36 42.3111 178.37C42.0887 178.378 41.8967 178.532 41.8408 178.745L41.6427 179.493C41.6427 178.93 41.6622 178.365 41.7557 177.833C41.9635 176.642 41.9295 175.43 41.8955 174.26C41.8432 172.482 41.7946 170.802 42.542 169.219C43.4194 167.36 43.5896 165.449 43.6856 163.655C43.8156 161.278 44.1073 158.865 44.388 156.529C44.5436 155.232 44.7052 153.892 44.8389 152.571C45.0856 150.11 44.7198 148.326 42.13 147.633C39.0286 146.802 37.0137 144.749 35.5967 140.978C34.7594 138.751 33.312 137.404 31.6446 135.998C30.2155 134.794 30.1984 134.714 31.0127 133.135C31.0394 133.084 31.0686 133.03 31.1002 132.977C31.2582 132.697 31.4538 132.347 31.3967 131.965C30.992 129.316 32.663 127.709 34.43 126.006L34.5698 125.871C36.3939 124.113 36.7318 121.879 35.4764 119.897C35.0486 119.221 34.7229 118.725 34.3839 118.43C35.0632 118.618 35.6793 119.046 36.3769 119.649C36.5847 119.829 36.8995 119.811 37.0842 119.605C38.8135 117.678 40.8759 116.477 43.3757 115.945L43.4462 116.516C43.4681 116.692 43.5799 116.842 43.7391 116.915C43.8995 116.988 44.0866 116.972 44.2325 116.872C45.5425 115.984 46.742 116.388 48.1299 116.855C49.1483 117.198 50.1995 117.553 51.3455 117.373C51.4026 117.358 51.5825 117.421 51.7003 117.459C51.9726 117.548 52.3116 117.66 52.6543 117.534C54.9427 116.695 56.5286 117.831 58.2082 119.035C58.8462 119.492 59.5061 119.965 60.2097 120.332C60.4127 120.438 60.6181 120.551 60.8247 120.664C61.758 121.178 62.7205 121.706 63.7535 121.766C67.2389 121.964 69.3693 123.682 70.2686 127.017C70.762 128.844 72.0818 129.262 73.3554 129.665L73.6045 129.745C74.217 129.942 74.8028 130.212 75.4238 130.498C76.0594 130.789 76.7156 131.091 77.4035 131.308L77.5627 131.358C78.8679 131.77 80.2095 132.195 81.5755 132.141C83.2891 132.064 84.5845 132.934 85.9432 133.851C86.6104 134.3 87.2995 134.765 88.0469 135.115C88.6764 135.409 88.8696 136.082 88.9267 136.457C89.0859 137.486 88.6983 138.662 87.9873 139.319Z" fill="black"/>
</g>
<path d="M212.981 138.517C213.067 138.656 213.155 138.792 213.225 138.934C213.835 140.174 215.854 141.062 217.374 141.174C217.49 141.182 217.6 141.187 217.708 141.187C218.587 141.187 219.257 140.911 219.615 140.395C220.676 138.863 221.92 136.608 221.823 134.579C221.741 132.847 221.676 131.479 222.919 130.239C223.102 130.055 223.117 129.763 222.953 129.561L221.128 127.323C221.027 127.2 220.869 127.128 220.715 127.139C220.554 127.145 220.407 127.229 220.319 127.36C220.102 127.676 219.925 127.959 219.766 128.214C219.492 128.655 219.274 129.003 219.015 129.255L218.363 129.883C217.052 131.155 215.697 132.471 214.222 133.537C214.162 133.58 213.96 133.616 213.812 133.643C213.351 133.722 212.494 133.873 212.359 134.855C212.231 135.783 212.368 136.744 212.503 137.477C212.575 137.875 212.791 138.217 212.981 138.517ZM213.361 134.991C213.389 134.789 213.45 134.732 213.986 134.638C214.27 134.588 214.567 134.536 214.816 134.357C216.35 133.248 217.733 131.906 219.069 130.61L219.716 129.984C220.066 129.646 220.313 129.251 220.624 128.751C220.674 128.671 220.726 128.589 220.78 128.501L221.891 129.863C220.655 131.33 220.732 132.937 220.812 134.629C220.895 136.375 219.755 138.417 218.783 139.82C218.599 140.086 218.102 140.216 217.447 140.167C216.094 140.066 214.515 139.266 214.132 138.488C214.045 138.316 213.94 138.147 213.835 137.98C213.681 137.735 213.533 137.501 213.496 137.294C213.377 136.634 213.253 135.776 213.361 134.991Z" fill="#F2BA00"/>
<path d="M150.214 167.838C150.265 167.838 150.319 167.832 150.371 167.818C151.167 167.615 152.176 166.911 152.486 166.086C153.985 162.094 155.264 158.399 156.389 154.788C156.671 153.885 157.256 152.003 155.507 150.492C155.395 150.394 155.245 150.352 155.101 150.374C154.953 150.396 154.825 150.482 154.746 150.609C153.588 152.483 152.373 154.236 150.259 155.086C149.603 155.349 149.429 156.303 149.26 157.223C149.223 157.426 149.189 157.622 149.148 157.795C149.065 158.159 149.049 158.535 149.035 158.899C149.015 159.393 148.994 159.86 148.809 160.14C147.606 161.964 147.488 163.907 148.45 166.08C148.578 166.374 149.412 167.838 150.214 167.838ZM149.655 160.699C149.994 160.185 150.021 159.553 150.047 158.943C150.061 158.61 150.073 158.295 150.135 158.019C150.178 157.833 150.215 157.623 150.257 157.406C150.331 157.001 150.485 156.156 150.637 156.026C152.815 155.148 154.103 153.505 155.259 151.696C155.925 152.582 155.712 153.555 155.422 154.487C154.3 158.08 153.03 161.757 151.536 165.731C151.385 166.135 150.783 166.623 150.23 166.805C150.014 166.651 149.568 166.11 149.374 165.672C148.553 163.815 148.642 162.234 149.655 160.699Z" fill="#F2BA00"/>
<path d="M153.724 32.9522C153.958 33.0981 154.21 33.222 154.453 33.3411C154.87 33.5441 155.303 33.7543 155.422 33.9937C155.999 35.1494 156.7 35.497 157.386 35.497C158.007 35.497 158.611 35.2126 159.099 34.9829L159.199 34.9356C159.434 34.8262 159.547 34.5588 159.464 34.3133C159.319 33.8928 159.149 33.4942 158.983 33.109C158.659 32.3531 158.354 31.6385 158.356 30.9835C158.365 28.5432 160.334 26.1126 162.936 25.3264C164.392 24.8864 165.753 24.3906 166.983 23.8486C167.397 23.6663 167.547 23.2118 167.678 22.8083C167.721 22.6807 167.762 22.5507 167.813 22.4413C167.882 22.2954 167.876 22.1265 167.8 21.9856C167.723 21.8446 167.583 21.7474 167.423 21.7255C167.306 21.7097 167.186 21.6817 167.064 21.6538C166.725 21.5748 166.34 21.4873 165.956 21.5942C165.522 21.7158 165.108 21.8956 164.707 22.0731C164.122 22.3295 163.567 22.5713 163.034 22.5944C160.232 22.7135 157.806 23.9361 155.401 26.4408C155.343 26.5003 155.27 26.5659 155.195 26.634C154.859 26.9354 154.513 27.2489 154.653 27.6718C154.936 28.5505 154.577 29.2845 154.162 30.1364C153.796 30.8814 153.419 31.6519 153.491 32.5621C153.502 32.7237 153.588 32.8684 153.724 32.9522ZM155.067 30.5824C155.49 29.7184 155.968 28.7437 155.674 27.5698C155.734 27.509 155.815 27.4373 155.87 27.385C155.965 27.3012 156.058 27.2173 156.129 27.1408C158.374 24.8038 160.516 23.7137 163.077 23.6043C163.798 23.5727 164.466 23.2823 165.111 22.9979C165.497 22.829 165.861 22.6698 166.227 22.5677C166.334 22.5361 166.499 22.5652 166.678 22.6041C166.634 22.7317 166.581 22.8776 166.539 22.9371C165.356 23.456 164.043 23.9324 162.641 24.3578C159.632 25.2656 157.352 28.1118 157.341 30.9786C157.337 31.8439 157.684 32.652 158.051 33.5076C158.149 33.7397 158.251 33.9767 158.345 34.2161C157.393 34.6366 156.895 34.6828 156.325 33.5416C156.053 32.996 155.463 32.7079 154.896 32.4309C154.756 32.364 154.621 32.2984 154.495 32.2303C154.529 31.6847 154.792 31.1451 155.067 30.5824Z" fill="#F2BA00"/>
<path d="M93.5884 47.2087C93.8837 47.9937 94.2192 48.8821 95.3056 49.305C95.8756 49.5274 96.51 49.6854 97.1626 49.6854C98.6501 49.6854 100.231 48.8651 101.35 46.1149C101.428 45.9205 101.38 45.6981 101.228 45.5559L99.7803 44.1924C99.694 44.1109 99.581 44.0635 99.4631 44.0562C98.5711 44.0003 97.7836 44.2981 97.086 44.5618C96.1976 44.8948 95.4308 45.1828 94.5837 44.7878C94.2131 44.6165 93.8619 44.8936 93.4523 45.3627C93.2494 45.5936 92.9455 45.9411 93.1813 46.3106C93.3454 46.567 93.4633 46.8781 93.5884 47.2087ZM94.4172 45.8111C95.5414 46.2182 96.5488 45.8415 97.4421 45.5049C98.0473 45.2788 98.6209 45.0625 99.2273 45.0576L100.28 46.0481C99.2164 48.4349 97.7447 49.1689 95.6738 48.3608C95.0395 48.1153 94.828 47.6267 94.5351 46.8502C94.4355 46.584 94.3297 46.3106 94.1949 46.0457C94.2629 45.9667 94.3455 45.8792 94.4172 45.8111Z" fill="#F2BA00"/>
<path d="M227.932 134.71C227.539 134.71 227.174 134.698 226.826 134.687C226.023 134.661 225.329 134.639 224.626 134.758C224.003 134.863 222.753 135.269 222.475 136.05C221.779 137.996 221.087 140.571 221.911 143.235C221.964 143.406 222.103 143.536 222.276 143.578L222.828 143.708C223.075 143.769 223.326 143.634 223.416 143.398L223.94 142.05L225.372 143.623C225.47 143.731 225.609 143.789 225.746 143.789C225.838 143.789 225.932 143.764 226.016 143.71L226.562 143.366C226.768 143.236 226.853 142.979 226.762 142.751L225.407 139.329L226.498 138.148C226.609 138.028 226.656 137.86 226.621 137.698C226.587 137.538 226.478 137.404 226.326 137.34L225.223 136.867C225.38 136.856 225.544 136.854 225.714 136.85C226.614 136.833 227.734 136.811 228.389 135.431C228.465 135.274 228.451 135.089 228.359 134.943C228.267 134.797 228.106 134.71 227.932 134.71ZM225.695 135.84C224.996 135.855 224.206 135.87 223.542 136.471C223.415 136.587 223.354 136.76 223.384 136.93C223.412 137.1 223.526 137.244 223.685 137.311L225.268 137.989L224.448 138.876C224.317 139.018 224.278 139.226 224.35 139.406L225.464 142.219L224.138 140.763C224.022 140.633 223.845 140.575 223.672 140.606C223.5 140.639 223.357 140.758 223.292 140.921L222.73 142.373C222.244 140.188 222.835 138.046 223.427 136.388C223.488 136.219 224.103 135.872 224.794 135.754C225.144 135.695 225.512 135.676 225.903 135.676C226.186 135.676 226.483 135.686 226.795 135.695C226.798 135.695 226.801 135.695 226.806 135.695C226.518 135.816 226.162 135.832 225.695 135.84Z" fill="#F2BA00"/>
<path d="M210.404 145.931L210.59 145.969C212.106 146.305 213.602 146.594 215.337 146.931C216.051 147.069 216.8 147.215 217.593 147.371C217.626 147.378 217.659 147.38 217.691 147.38C217.844 147.38 217.991 147.31 218.088 147.188C218.206 147.038 218.229 146.836 218.149 146.662C218.025 146.392 217.93 146.175 217.85 145.99C217.703 145.651 217.596 145.404 217.443 145.17C216.48 143.704 215.016 143.578 213.725 143.466C212.902 143.396 212.128 143.329 211.49 142.954C210.983 142.657 210.17 142.898 209.843 143.015C209.41 143.172 208.859 143.451 208.699 143.891C208.538 144.334 208.549 144.727 208.732 145.059C209.063 145.651 209.807 145.807 210.404 145.931ZM209.636 144.272C209.78 144.074 210.542 143.814 210.876 143.814C210.919 143.814 210.953 143.818 210.98 143.827C211.813 144.317 212.743 144.397 213.64 144.475C214.857 144.579 215.907 144.67 216.6 145.725C216.681 145.849 216.751 145.995 216.837 146.192C216.388 146.104 215.954 146.021 215.531 145.939C213.804 145.605 212.314 145.317 210.811 144.984L210.614 144.941C210.282 144.872 209.726 144.757 209.621 144.567C209.572 144.484 209.62 144.324 209.636 144.272Z" fill="#F2BA00"/>
<path d="M98.2337 61.9718C96.6951 62.9623 96.6501 64.3112 96.61 65.6152C96.5955 66.0345 96.5833 66.4671 96.5177 66.89C96.4958 67.0298 96.5347 67.1732 96.6246 67.2826C96.7121 67.3944 96.8434 67.4612 96.9856 67.4709C97.1703 67.4831 97.3307 67.5025 97.4729 67.5196C97.6515 67.5414 97.8168 67.5621 97.9784 67.5621C98.0939 67.5621 98.2081 67.5499 98.326 67.5244C100.129 67.1015 101.049 65.8364 101.065 63.7631C101.068 63.5954 101.114 63.3597 101.158 63.1324C101.265 62.5989 101.374 62.0459 100.989 61.7263C99.9569 60.8659 98.9191 61.5319 98.2337 61.9718ZM100.245 62.4324C100.238 62.56 100.194 62.78 100.164 62.9355C100.109 63.209 100.053 63.4909 100.052 63.7558C100.041 65.3649 99.4356 66.2241 98.0927 66.5388C97.9882 66.5644 97.8144 66.5437 97.5944 66.5157C97.5896 66.5157 97.5859 66.5145 97.5811 66.5145C97.6041 66.218 97.6139 65.93 97.6224 65.648C97.6625 64.4157 97.6904 63.5249 98.783 62.8237C99.579 62.3121 99.9144 62.2124 100.245 62.4324Z" fill="#F2BA00"/>
<path d="M41.6782 105.532C41.6806 105.322 41.5555 105.135 41.361 105.056C40.3815 104.66 39.4275 104.171 38.5063 103.701C35.6553 102.241 32.707 100.733 29.1657 102.216C28.9798 102.295 28.857 102.476 28.8534 102.678L28.8473 103.207C28.8461 103.356 28.9105 103.5 29.0235 103.598C29.1353 103.694 29.2872 103.737 29.4343 103.713C29.7272 103.666 30.02 103.588 30.3056 103.511C30.8331 103.37 31.3787 103.223 31.7397 103.342C33.4289 103.9 35.0428 104.485 36.2216 105.486C37.1173 106.248 37.9631 106.551 38.8673 106.551C39.6305 106.551 40.435 106.337 41.3477 105.999C41.5433 105.926 41.6746 105.741 41.6782 105.532ZM36.8766 104.717C35.7525 103.762 34.3428 103.169 32.8431 102.647C34.5871 102.832 36.2374 103.677 38.0421 104.6C38.5914 104.882 39.1529 105.169 39.7265 105.441C38.6582 105.678 37.8282 105.524 36.8766 104.717Z" fill="#F2BA00"/>
<path d="M227.563 120.788C227.618 120.806 227.674 120.816 227.73 120.816C227.864 120.816 227.994 120.763 228.091 120.665C228.228 120.526 228.273 120.321 228.206 120.136C228.137 119.947 228.091 119.779 228.053 119.639C227.957 119.295 227.866 118.97 227.526 118.852C226.662 118.55 226.165 118.193 226.012 117.76C225.851 117.314 226.022 116.695 226.529 115.867C226.816 115.4 226.866 114.898 226.673 114.457C226.402 113.841 225.696 113.394 224.687 113.198C224.557 113.174 224.417 113.202 224.307 113.277C224.196 113.354 224.118 113.469 224.094 113.603C223.083 118.993 223.212 119.263 227.563 120.788ZM224.986 114.326C225.431 114.483 225.669 114.694 225.744 114.868C225.766 114.918 225.832 115.069 225.665 115.338C224.987 116.444 224.787 117.35 225.056 118.102C225.172 118.428 225.372 118.719 225.663 118.977C225.166 118.735 224.861 118.496 224.714 118.186C224.415 117.561 224.602 116.388 224.986 114.326Z" fill="#F2BA00"/>
<path d="M48.8467 106.514C48.4845 106.433 48.1248 106.347 47.7626 106.26C46.8172 106.034 45.8401 105.801 44.8569 105.648C44.3404 105.568 43.5274 105.876 43.2528 106.118C43.0644 106.282 43.0267 106.462 43.0304 106.585C43.0376 106.978 42.9501 107.093 42.9222 107.119C42.8128 107.223 42.4409 107.194 42.1456 107.172C41.8698 107.15 41.5866 107.129 41.3107 107.168C41.1686 107.19 41.0434 107.27 40.9632 107.39C40.883 107.511 40.8599 107.658 40.8963 107.796L41.0422 108.353C41.0993 108.577 41.3034 108.732 41.5307 108.732C41.5429 108.732 41.5538 108.732 41.5647 108.731L48.6911 108.242C48.9366 108.225 49.1347 108.033 49.1614 107.789L49.2356 107.06C49.2647 106.805 49.0946 106.57 48.8467 106.514ZM43.8422 107.559C43.954 107.358 44.0184 107.11 44.0354 106.814C44.2359 106.723 44.5725 106.626 44.6989 106.648C45.6432 106.797 46.6008 107.026 47.5269 107.245C47.5937 107.26 47.663 107.277 47.7298 107.293L43.8422 107.559Z" fill="#F2BA00"/>
<path d="M224.883 126.682C224.851 126.86 224.919 127.041 225.058 127.158L228.174 129.754C228.266 129.831 228.381 129.871 228.498 129.871C228.56 129.871 228.623 129.86 228.683 129.837C228.854 129.769 228.976 129.613 228.999 129.429C229.053 128.992 229.352 128.551 229.642 128.123C230.199 127.3 230.964 126.171 229.612 124.969C229.473 124.845 229.277 124.808 229.102 124.872L225.207 126.293C225.039 126.356 224.914 126.503 224.883 126.682ZM229.147 125.933C229.546 126.403 229.341 126.764 228.804 127.557C228.61 127.845 228.401 128.153 228.243 128.492L226.382 126.943L229.147 125.933Z" fill="#F2BA00"/>
<path d="M148.074 80.5425C147.894 80.0794 147.707 79.6031 147.33 79.2506C146.583 78.5518 145.771 77.9284 144.985 77.3256C144.761 77.1555 144.54 76.9854 144.32 76.814L145.017 74.2777C145.068 74.0918 145.008 73.8925 144.865 73.7661C144.72 73.6373 144.516 73.6032 144.337 73.6761L140.937 75.0664C140.776 75.1333 140.662 75.2755 140.631 75.4444C140.6 75.6133 140.657 75.7871 140.782 75.905L141.6 76.6682C141.273 76.7873 141.033 76.8505 140.906 76.8237C140.73 76.7824 140.47 76.4336 140.075 75.905L140.014 75.8211C139.718 75.4249 139.359 75.1077 138.865 74.6666C138.605 74.4357 138.303 74.1671 137.947 73.8317C137.828 73.7211 137.664 73.6725 137.505 73.7029C137.344 73.7345 137.211 73.839 137.142 73.9885C136.84 74.6411 136.563 75.2366 136.304 75.7956C135.767 76.9489 135.303 77.9442 134.863 78.9541C134.574 79.6213 134.242 80.5935 134.702 81.3275C135.162 82.0604 136.172 82.1843 136.892 82.2123C137.409 82.2354 138.376 82.2013 139.082 81.7553C140.296 80.9885 141.329 81.2084 142.602 81.8161C143.704 82.3411 145.017 82.4687 146.156 82.5258C146.178 82.527 146.2 82.527 146.222 82.527C146.722 82.527 147.177 82.2499 147.58 82.0044C147.739 81.9072 147.897 81.81 148.053 81.7347C148.176 81.6775 148.27 81.5718 148.314 81.4454C148.357 81.319 148.35 81.1781 148.29 81.0565C148.21 80.8937 148.142 80.7187 148.074 80.5425ZM147.053 81.1428C146.743 81.3324 146.43 81.5366 146.206 81.5171C145.166 81.4661 143.979 81.3543 143.037 80.9071C142.289 80.5498 141.498 80.2557 140.649 80.2557C139.986 80.2557 139.286 80.4355 138.544 80.9034C138.198 81.1222 137.609 81.2303 136.934 81.206C136.185 81.1756 135.71 81.0334 135.56 80.794C135.455 80.6263 135.41 80.2411 135.791 79.3612C136.225 78.3623 136.687 77.373 137.222 76.2258C137.396 75.8515 137.578 75.4602 137.769 75.047C137.923 75.1843 138.064 75.3095 138.195 75.4249C138.663 75.8406 138.972 76.114 139.205 76.4275L139.266 76.5102C140.432 78.0767 140.69 78.135 142.724 77.3196C142.886 77.2551 143.002 77.113 143.033 76.9428C143.066 76.7715 143.008 76.5977 142.881 76.4786L142.052 75.7044L143.77 75.0008L143.256 76.8711C143.202 77.0668 143.269 77.2746 143.429 77.401C143.737 77.6452 144.052 77.8871 144.37 78.1289C145.137 78.7159 145.929 79.3235 146.64 79.9895C146.849 80.1852 146.985 80.5376 147.131 80.9095C147.151 80.9593 147.17 81.0104 147.189 81.0602C147.144 81.0869 147.098 81.1149 147.053 81.1428Z" fill="#F2BA00"/>
<path d="M135.361 54.4955C135.42 54.318 135.376 54.1236 135.248 53.9899C133.565 52.2083 132.869 52.0114 131.11 52.8257L131.063 52.85C130.774 52.9824 130.009 53.3385 129.806 53.2522C129.105 52.9107 128.568 52.1062 128.332 51.0429C128.055 49.7984 128.271 48.5066 128.881 47.7519C129.437 47.0653 129.907 46.3458 130.45 45.5133C130.704 45.1245 130.972 44.7161 131.266 44.2847C131.358 44.1486 131.379 43.976 131.32 43.8229C131.262 43.6686 131.134 43.5519 130.974 43.5106C127.892 42.7012 127.261 42.9503 126.475 45.2897C126.264 45.9192 125.752 46.6095 125.14 47.0908C123.879 48.0861 123.143 49.2722 123.012 50.5215C122.888 51.693 123.304 52.8913 124.215 53.9875C124.817 54.7154 124.668 55.1043 123.916 55.9052C123.832 55.9951 123.738 56.0863 123.642 56.1786C123.229 56.5821 122.76 57.0403 122.719 57.6151C122.607 59.2496 122.067 60.0274 120.8 60.3896C120.25 60.5463 119.756 60.8283 119.278 61.1005C119.073 61.2172 118.866 61.335 118.655 61.4432C118.464 61.5404 118.356 61.7458 118.383 61.9585C118.596 63.6684 119.829 64.2675 121 64.2675C121.089 64.2675 121.18 64.2639 121.268 64.2566L121.489 64.2396C123.074 64.1192 124.867 63.9844 126.007 63.034C126.947 62.2514 127.492 61.047 128.02 59.884C128.18 59.5316 128.344 59.1682 128.518 58.8206L130.042 59.4003C130.211 59.4647 130.4 59.4331 130.541 59.3201C130.68 59.2059 130.749 59.026 130.721 58.8474L130.216 55.6864L134.966 54.837C135.153 54.8017 135.303 54.6717 135.361 54.4955ZM129.551 54.7774C129.279 54.8248 129.098 55.0824 129.141 55.3547L129.587 58.1425L128.462 57.7159C128.225 57.626 127.959 57.7232 127.839 57.9456C127.568 58.4403 127.332 58.9616 127.102 59.4659C126.6 60.5743 126.126 61.6218 125.366 62.2562C124.472 62.9975 122.849 63.1215 121.417 63.2297L121.192 63.2467C120.649 63.2892 119.74 63.192 119.454 62.1651C119.565 62.1043 119.674 62.0423 119.783 61.9804C120.229 61.7264 120.649 61.487 121.082 61.363C123.249 60.7444 123.636 59.0734 123.732 57.6856C123.744 57.4948 124.111 57.1375 124.352 56.9017C124.457 56.7984 124.562 56.6975 124.655 56.5991C125.22 55.9975 126.271 54.8807 124.994 53.3409C124.252 52.4477 123.923 51.5326 124.019 50.626C124.12 49.6538 124.726 48.7059 125.765 47.8856C126.535 47.2791 127.158 46.4297 127.433 45.6106C127.958 44.0526 128.034 43.8192 130.026 44.3114C129.879 44.5326 129.738 44.7489 129.602 44.958C129.072 45.7673 128.615 46.4661 128.093 47.1127C127.283 48.114 126.996 49.7048 127.343 51.2604C127.647 52.6239 128.382 53.6812 129.361 54.1588C129.985 54.4602 130.819 54.0738 131.487 53.7626L131.536 53.7408C132.565 53.2632 132.915 53.1453 133.841 54.0045L129.551 54.7774Z" fill="#F2BA00"/>
</svg>
